<?xml version="1.0" encoding="UTF-8" standalone="no"?><svg xmlns="http://www.w3.org/2000/svg" xmlns:xlink="http://www.w3.org/1999/xlink" clip-rule="evenodd" stroke-miterlimit="4.00" viewBox="0 0 1920 1080"><desc>SVG generated by Keynote</desc><defs></defs><g transform="matrix(1.00, 0.00, -0.00, -1.00, 0.0, 1080.0)"><path d="M 0.0 1080.0 L 1920.0 1080.0 L 1920.0 0.0 L 0.0 0.0 Z M 0.0 1080.0 " fill="#212121"></path><text xml:space="preserve" font-family="DINCondensed-Bold" font-weight="bold" font-size="325.7" fill="#34A4DA" transform="matrix(1.00, 0.00, -0.00, -1.00, 71.0, 496.0)">G</text><text xml:space="preserve" font-family="DINCondensed-Bold" font-weight="bold" font-size="325.7" fill="#34A4DA" transform="matrix(1.00, 0.00, -0.00, -1.00, 209.7, 496.0)">L</text><text xml:space="preserve" font-family="DINCondensed-Bold" font-weight="bold" font-size="325.7" fill="#34A4DA" transform="matrix(1.00, 0.00, -0.00, -1.00, 330.2, 496.0)">O</text><text xml:space="preserve" font-family="DINCondensed-Bold" font-weight="bold" font-size="325.7" fill="#34A4DA" transform="matrix(1.00, 0.00, -0.00, -1.00, 468.9, 496.0)">S</text><text xml:space="preserve" font-family="DINCondensed-Bold" font-weight="bold" font-size="325.7" fill="#34A4DA" transform="matrix(1.00, 0.00, -0.00, -1.00, 601.2, 496.0)">S</text><text xml:space="preserve" font-family="DINCondensed-Bold" font-weight="bold" font-size="325.7" fill="#34A4DA" transform="matrix(1.00, 0.00, -0.00, -1.00, 733.4, 496.0)">A</text><text xml:space="preserve" font-family="DINCondensed-Bold" font-weight="bold" font-size="325.7" fill="#34A4DA" transform="matrix(1.00, 0.00, -0.00, -1.00, 865.9, 496.0)">R</text><text xml:space="preserve" font-family="DINCondensed-Bold" font-weight="bold" font-size="325.7" fill="#34A4DA" transform="matrix(1.00, 0.00, -0.00, -1.00, 998.8, 496.0)">Y</text><text xml:space="preserve" font-family="DINCondensed-Bold" font-weight="bold" font-size="325.7" fill="#34A4DA" transform="matrix(1.00, 0.00, -0.00, -1.00, 1125.1, 496.0)"> </text><text xml:space="preserve" font-family="DINCondensed-Bold" font-weight="bold" font-size="325.7" fill="#34A4DA" transform="matrix(1.00, 0.00, -0.00, -1.00, 1185.7, 496.0)">C</text><text xml:space="preserve" font-family="DINCondensed-Bold" font-weight="bold" font-size="325.7" fill="#34A4DA" transform="matrix(1.00, 0.00, -0.00, -1.00, 1318.2, 496.0)">H</text><text xml:space="preserve" font-family="DINCondensed-Bold" font-weight="bold" font-size="325.7" fill="#34A4DA" transform="matrix(1.00, 0.00, -0.00, -1.00, 1457.0, 496.0)">E</text><text xml:space="preserve" font-family="DINCondensed-Bold" font-weight="bold" font-size="325.7" fill="#34A4DA" transform="matrix(1.00, 0.00, -0.00, -1.00, 1577.5, 496.0)">C</text><text xml:space="preserve" font-family="DINCondensed-Bold" font-weight="bold" font-size="325.7" fill="#34A4DA" transform="matrix(1.00, 0.00, -0.00, -1.00, 1710.0, 496.0)">K</text></g></svg>