<?xml version="1.0" encoding="UTF-8" standalone="no"?><svg xmlns="http://www.w3.org/2000/svg" xmlns:xlink="http://www.w3.org/1999/xlink" clip-rule="evenodd" stroke-miterlimit="4.00" viewBox="0 0 1920 1080"><desc>SVG generated by Keynote</desc><defs></defs><g transform="matrix(1.00, 0.00, -0.00, -1.00, 0.0, 1080.0)"><path d="M 0.0 1080.0 L 1920.0 1080.0 L 1920.0 0.0 L 0.0 0.0 Z M 0.0 1080.0 " fill="#212121"></path><text xml:space="preserve" font-family="DINCondensed-Bold" font-weight="bold" font-size="290.6" fill="#00CBD9" transform="matrix(1.00, 0.00, -0.00, -1.00, 589.0, 521.0)">A</text><text xml:space="preserve" font-family="DINCondensed-Bold" font-weight="bold" font-size="290.6" fill="#00CBD9" transform="matrix(1.00, 0.00, -0.00, -1.00, 707.3, 521.0)">S</text><text xml:space="preserve" font-family="DINCondensed-Bold" font-weight="bold" font-size="290.6" fill="#00CBD9" transform="matrix(1.00, 0.00, -0.00, -1.00, 825.2, 521.0)"> </text><text xml:space="preserve" font-family="DINCondensed-Bold" font-weight="bold" font-size="290.6" fill="#00CBD9" transform="matrix(1.00, 0.00, -0.00, -1.00, 879.3, 521.0)">W</text><text xml:space="preserve" font-family="DINCondensed-Bold" font-weight="bold" font-size="290.6" fill="#00CBD9" transform="matrix(1.00, 0.00, -0.00, -1.00, 1051.6, 521.0)">I</text><text xml:space="preserve" font-family="DINCondensed-Bold" font-weight="bold" font-size="290.6" fill="#00CBD9" transform="matrix(1.00, 0.00, -0.00, -1.00, 1110.9, 521.0)">T</text><text xml:space="preserve" font-family="DINCondensed-Bold" font-weight="bold" font-size="290.6" fill="#00CBD9" transform="matrix(1.00, 0.00, -0.00, -1.00, 1207.4, 521.0)">H</text><text xml:space="preserve" font-family="DINCondensed-Bold" font-weight="bold" font-size="290.6" fill="#00CBD9" transform="matrix(1.00, 0.00, -0.00, -1.00, 1331.1, 521.0)"> </text><text xml:space="preserve" font-family="DINCondensed-Bold" font-weight="bold" font-size="290.6" fill="#00CBD9" transform="matrix(1.00, 0.00, -0.00, -1.00, 412.0, 230.0)">E</text><text xml:space="preserve" font-family="DINCondensed-Bold" font-weight="bold" font-size="290.6" fill="#00CBD9" transform="matrix(1.00, 0.00, -0.00, -1.00, 519.5, 230.0)">V</text><text xml:space="preserve" font-family="DINCondensed-Bold" font-weight="bold" font-size="290.6" fill="#00CBD9" transform="matrix(1.00, 0.00, -0.00, -1.00, 637.8, 230.0)">E</text><text xml:space="preserve" font-family="DINCondensed-Bold" font-weight="bold" font-size="290.6" fill="#00CBD9" transform="matrix(1.00, 0.00, -0.00, -1.00, 745.3, 230.0)">R</text><text xml:space="preserve" font-family="DINCondensed-Bold" font-weight="bold" font-size="290.6" fill="#00CBD9" transform="matrix(1.00, 0.00, -0.00, -1.00, 863.9, 230.0)">Y</text><text xml:space="preserve" font-family="DINCondensed-Bold" font-weight="bold" font-size="290.6" fill="#00CBD9" transform="matrix(1.00, 0.00, -0.00, -1.00, 976.6, 230.0)">T</text><text xml:space="preserve" font-family="DINCondensed-Bold" font-weight="bold" font-size="290.6" fill="#00CBD9" transform="matrix(1.00, 0.00, -0.00, -1.00, 1073.1, 230.0)">H</text><text xml:space="preserve" font-family="DINCondensed-Bold" font-weight="bold" font-size="290.6" fill="#00CBD9" transform="matrix(1.00, 0.00, -0.00, -1.00, 1196.9, 230.0)">I</text><text xml:space="preserve" font-family="DINCondensed-Bold" font-weight="bold" font-size="290.6" fill="#00CBD9" transform="matrix(1.00, 0.00, -0.00, -1.00, 1256.1, 230.0)">N</text><text xml:space="preserve" font-family="DINCondensed-Bold" font-weight="bold" font-size="290.6" fill="#00CBD9" transform="matrix(1.00, 0.00, -0.00, -1.00, 1385.2, 230.0)">G</text></g></svg>