<?xml version="1.0" encoding="UTF-8" standalone="no"?><svg xmlns="http://www.w3.org/2000/svg" xmlns:xlink="http://www.w3.org/1999/xlink" clip-rule="evenodd" stroke-miterlimit="4.00" viewBox="0 0 1920 1080"><desc>SVG generated by Keynote</desc><defs></defs><g transform="matrix(1.00, 0.00, -0.00, -1.00, 0.0, 1080.0)"><path d="M 0.0 1080.0 L 1920.0 1080.0 L 1920.0 0.0 L 0.0 0.0 Z M 0.0 1080.0 " fill="#212121"></path><text xml:space="preserve" font-family="DINCondensed-Bold" font-weight="bold" font-size="501.0" fill="#00CBD9" transform="matrix(1.00, 0.00, -0.00, -1.00, 200.0, 372.0)">D</text><text xml:space="preserve" font-family="DINCondensed-Bold" font-weight="bold" font-size="501.0" fill="#00CBD9" transform="matrix(1.00, 0.00, -0.00, -1.00, 413.4, 372.0)">E</text><text xml:space="preserve" font-family="DINCondensed-Bold" font-weight="bold" font-size="501.0" fill="#00CBD9" transform="matrix(1.00, 0.00, -0.00, -1.00, 598.8, 372.0)">P</text><text xml:space="preserve" font-family="DINCondensed-Bold" font-weight="bold" font-size="501.0" fill="#00CBD9" transform="matrix(1.00, 0.00, -0.00, -1.00, 802.7, 372.0)">E</text><text xml:space="preserve" font-family="DINCondensed-Bold" font-weight="bold" font-size="501.0" fill="#00CBD9" transform="matrix(1.00, 0.00, -0.00, -1.00, 988.1, 372.0)">N</text><text xml:space="preserve" font-family="DINCondensed-Bold" font-weight="bold" font-size="501.0" fill="#00CBD9" transform="matrix(1.00, 0.00, -0.00, -1.00, 1210.5, 372.0)">D</text><text xml:space="preserve" font-family="DINCondensed-Bold" font-weight="bold" font-size="501.0" fill="#00CBD9" transform="matrix(1.00, 0.00, -0.00, -1.00, 1423.9, 372.0)">S</text><text xml:space="preserve" font-family="DINCondensed-Bold" font-weight="bold" font-size="501.0" fill="#00CBD9" transform="matrix(1.00, 0.00, -0.00, -1.00, 1627.3, 372.0)">.</text></g></svg>