<?xml version="1.0" encoding="UTF-8" standalone="no"?><svg xmlns="http://www.w3.org/2000/svg" xmlns:xlink="http://www.w3.org/1999/xlink" clip-rule="evenodd" stroke-miterlimit="4.00" viewBox="0 0 1920 1080"><desc>SVG generated by Keynote</desc><defs></defs><g transform="matrix(1.00, 0.00, -0.00, -1.00, 0.0, 1080.0)"><path d="M 0.0 1080.0 L 1920.0 1080.0 L 1920.0 0.0 L 0.0 0.0 Z M 0.0 1080.0 " fill="#212121"></path><text xml:space="preserve" font-family="DINCondensed-Bold" font-weight="bold" font-size="325.7" fill="#34A4DA" transform="matrix(1.00, 0.00, -0.00, -1.00, 68.0, 496.0)">M</text><text xml:space="preserve" font-family="DINCondensed-Bold" font-weight="bold" font-size="325.7" fill="#34A4DA" transform="matrix(1.00, 0.00, -0.00, -1.00, 249.1, 496.0)">O</text><text xml:space="preserve" font-family="DINCondensed-Bold" font-weight="bold" font-size="325.7" fill="#34A4DA" transform="matrix(1.00, 0.00, -0.00, -1.00, 387.8, 496.0)">N</text><text xml:space="preserve" font-family="DINCondensed-Bold" font-weight="bold" font-size="325.7" fill="#34A4DA" transform="matrix(1.00, 0.00, -0.00, -1.00, 532.4, 496.0)">O</text><text xml:space="preserve" font-family="DINCondensed-Bold" font-weight="bold" font-size="325.7" fill="#34A4DA" transform="matrix(1.00, 0.00, -0.00, -1.00, 671.1, 496.0)">L</text><text xml:space="preserve" font-family="DINCondensed-Bold" font-weight="bold" font-size="325.7" fill="#34A4DA" transform="matrix(1.00, 0.00, -0.00, -1.00, 791.6, 496.0)">I</text><text xml:space="preserve" font-family="DINCondensed-Bold" font-weight="bold" font-size="325.7" fill="#34A4DA" transform="matrix(1.00, 0.00, -0.00, -1.00, 858.0, 496.0)">T</text><text xml:space="preserve" font-family="DINCondensed-Bold" font-weight="bold" font-size="325.7" fill="#34A4DA" transform="matrix(1.00, 0.00, -0.00, -1.00, 966.1, 496.0)">H</text><text xml:space="preserve" font-family="DINCondensed-Bold" font-weight="bold" font-size="325.7" fill="#34A4DA" transform="matrix(1.00, 0.00, -0.00, -1.00, 1104.9, 496.0)"> </text><text xml:space="preserve" font-family="DINCondensed-Bold" font-weight="bold" font-size="325.7" fill="#34A4DA" transform="matrix(1.00, 0.00, -0.00, -1.00, 1165.4, 496.0)">E</text><text xml:space="preserve" font-family="DINCondensed-Bold" font-weight="bold" font-size="325.7" fill="#34A4DA" transform="matrix(1.00, 0.00, -0.00, -1.00, 1285.9, 496.0)">X</text><text xml:space="preserve" font-family="DINCondensed-Bold" font-weight="bold" font-size="325.7" fill="#34A4DA" transform="matrix(1.00, 0.00, -0.00, -1.00, 1412.6, 496.0)">I</text><text xml:space="preserve" font-family="DINCondensed-Bold" font-weight="bold" font-size="325.7" fill="#34A4DA" transform="matrix(1.00, 0.00, -0.00, -1.00, 1479.0, 496.0)">S</text><text xml:space="preserve" font-family="DINCondensed-Bold" font-weight="bold" font-size="325.7" fill="#34A4DA" transform="matrix(1.00, 0.00, -0.00, -1.00, 1611.3, 496.0)">T</text><text xml:space="preserve" font-family="DINCondensed-Bold" font-weight="bold" font-size="325.7" fill="#34A4DA" transform="matrix(1.00, 0.00, -0.00, -1.00, 1719.4, 496.0)">S</text></g></svg>