<?xml version="1.0" encoding="UTF-8" standalone="no"?><svg xmlns="http://www.w3.org/2000/svg" xmlns:xlink="http://www.w3.org/1999/xlink" clip-rule="evenodd" stroke-miterlimit="4.00" viewBox="0 0 1920 1080"><desc>SVG generated by Keynote</desc><defs></defs><g transform="matrix(1.00, 0.00, -0.00, -1.00, 0.0, 1080.0)"><path d="M 0.0 1080.0 L 1920.0 1080.0 L 1920.0 0.0 L 0.0 0.0 Z M 0.0 1080.0 " fill="#212121"></path><text xml:space="preserve" font-family="DINCondensed-Bold" font-weight="bold" font-size="310.6" fill="#34A4DA" transform="matrix(1.00, 0.00, -0.00, -1.00, 75.0, 508.0)">H</text><text xml:space="preserve" font-family="DINCondensed-Bold" font-weight="bold" font-size="310.6" fill="#34A4DA" transform="matrix(1.00, 0.00, -0.00, -1.00, 207.3, 508.0)">O</text><text xml:space="preserve" font-family="DINCondensed-Bold" font-weight="bold" font-size="310.6" fill="#34A4DA" transform="matrix(1.00, 0.00, -0.00, -1.00, 335.9, 508.0)">W</text><text xml:space="preserve" font-family="DINCondensed-Bold" font-weight="bold" font-size="310.6" fill="#34A4DA" transform="matrix(1.00, 0.00, -0.00, -1.00, 520.1, 508.0)"> </text><text xml:space="preserve" font-family="DINCondensed-Bold" font-weight="bold" font-size="310.6" fill="#34A4DA" transform="matrix(1.00, 0.00, -0.00, -1.00, 577.9, 508.0)">T</text><text xml:space="preserve" font-family="DINCondensed-Bold" font-weight="bold" font-size="310.6" fill="#34A4DA" transform="matrix(1.00, 0.00, -0.00, -1.00, 677.3, 508.0)">O</text><text xml:space="preserve" font-family="DINCondensed-Bold" font-weight="bold" font-size="310.6" fill="#34A4DA" transform="matrix(1.00, 0.00, -0.00, -1.00, 809.6, 508.0)"> </text><text xml:space="preserve" font-family="DINCondensed-Bold" font-weight="bold" font-size="310.6" fill="#34A4DA" transform="matrix(1.00, 0.00, -0.00, -1.00, 867.4, 508.0)">B</text><text xml:space="preserve" font-family="DINCondensed-Bold" font-weight="bold" font-size="310.6" fill="#34A4DA" transform="matrix(1.00, 0.00, -0.00, -1.00, 999.7, 508.0)">R</text><text xml:space="preserve" font-family="DINCondensed-Bold" font-weight="bold" font-size="310.6" fill="#34A4DA" transform="matrix(1.00, 0.00, -0.00, -1.00, 1132.0, 508.0)">E</text><text xml:space="preserve" font-family="DINCondensed-Bold" font-weight="bold" font-size="310.6" fill="#34A4DA" transform="matrix(1.00, 0.00, -0.00, -1.00, 1247.0, 508.0)">A</text><text xml:space="preserve" font-family="DINCondensed-Bold" font-weight="bold" font-size="310.6" fill="#34A4DA" transform="matrix(1.00, 0.00, -0.00, -1.00, 1373.4, 508.0)">K</text><text xml:space="preserve" font-family="DINCondensed-Bold" font-weight="bold" font-size="310.6" fill="#34A4DA" transform="matrix(1.00, 0.00, -0.00, -1.00, 1505.7, 508.0)"> </text><text xml:space="preserve" font-family="DINCondensed-Bold" font-weight="bold" font-size="310.6" fill="#34A4DA" transform="matrix(1.00, 0.00, -0.00, -1.00, 1563.5, 508.0)">I</text><text xml:space="preserve" font-family="DINCondensed-Bold" font-weight="bold" font-size="310.6" fill="#34A4DA" transform="matrix(1.00, 0.00, -0.00, -1.00, 1626.9, 508.0)">T</text><text xml:space="preserve" font-family="DINCondensed-Bold" font-weight="bold" font-size="310.6" fill="#34A4DA" transform="matrix(1.00, 0.00, -0.00, -1.00, 1730.0, 508.0)">?</text></g></svg>