<?xml version="1.0" encoding="UTF-8" standalone="no"?><svg xmlns="http://www.w3.org/2000/svg" xmlns:xlink="http://www.w3.org/1999/xlink" clip-rule="evenodd" stroke-miterlimit="4.00" viewBox="0 0 1920 1080"><desc>SVG generated by Keynote</desc><defs></defs><g transform="matrix(1.00, 0.00, -0.00, -1.00, 0.0, 1080.0)"><path d="M 0.0 1080.0 L 1920.0 1080.0 L 1920.0 0.0 L 0.0 0.0 Z M 0.0 1080.0 " fill="#212121"></path><text xml:space="preserve" font-family="DINCondensed-Bold" font-weight="bold" font-size="400.8" fill="#00CBD9" transform="matrix(1.00, 0.00, -0.00, -1.00, 73.0, 444.0)">I</text><text xml:space="preserve" font-family="DINCondensed-Bold" font-weight="bold" font-size="400.8" fill="#00CBD9" transform="matrix(1.00, 0.00, -0.00, -1.00, 154.8, 444.0)">S</text><text xml:space="preserve" font-family="DINCondensed-Bold" font-weight="bold" font-size="400.8" fill="#00CBD9" transform="matrix(1.00, 0.00, -0.00, -1.00, 317.5, 444.0)"> </text><text xml:space="preserve" font-family="DINCondensed-Bold" font-weight="bold" font-size="400.8" fill="#00CBD9" transform="matrix(1.00, 0.00, -0.00, -1.00, 392.0, 444.0)">T</text><text xml:space="preserve" font-family="DINCondensed-Bold" font-weight="bold" font-size="400.8" fill="#00CBD9" transform="matrix(1.00, 0.00, -0.00, -1.00, 525.1, 444.0)">H</text><text xml:space="preserve" font-family="DINCondensed-Bold" font-weight="bold" font-size="400.8" fill="#00CBD9" transform="matrix(1.00, 0.00, -0.00, -1.00, 695.8, 444.0)">I</text><text xml:space="preserve" font-family="DINCondensed-Bold" font-weight="bold" font-size="400.8" fill="#00CBD9" transform="matrix(1.00, 0.00, -0.00, -1.00, 777.6, 444.0)">S</text><text xml:space="preserve" font-family="DINCondensed-Bold" font-weight="bold" font-size="400.8" fill="#00CBD9" transform="matrix(1.00, 0.00, -0.00, -1.00, 940.3, 444.0)"> </text><text xml:space="preserve" font-family="DINCondensed-Bold" font-weight="bold" font-size="400.8" fill="#00CBD9" transform="matrix(1.00, 0.00, -0.00, -1.00, 1014.9, 444.0)">G</text><text xml:space="preserve" font-family="DINCondensed-Bold" font-weight="bold" font-size="400.8" fill="#00CBD9" transform="matrix(1.00, 0.00, -0.00, -1.00, 1185.6, 444.0)">O</text><text xml:space="preserve" font-family="DINCondensed-Bold" font-weight="bold" font-size="400.8" fill="#00CBD9" transform="matrix(1.00, 0.00, -0.00, -1.00, 1356.4, 444.0)">O</text><text xml:space="preserve" font-family="DINCondensed-Bold" font-weight="bold" font-size="400.8" fill="#00CBD9" transform="matrix(1.00, 0.00, -0.00, -1.00, 1527.1, 444.0)">D</text><text xml:space="preserve" font-family="DINCondensed-Bold" font-weight="bold" font-size="400.8" fill="#00CBD9" transform="matrix(1.00, 0.00, -0.00, -1.00, 1697.8, 444.0)">?</text></g></svg>