<?xml version="1.0" encoding="UTF-8" standalone="no"?><svg xmlns="http://www.w3.org/2000/svg" xmlns:xlink="http://www.w3.org/1999/xlink" clip-rule="evenodd" stroke-miterlimit="4.00" viewBox="0 0 1920 1080"><desc>SVG generated by Keynote</desc><defs></defs><g transform="matrix(1.00, 0.00, -0.00, -1.00, 0.0, 1080.0)"><path d="M 0.0 1080.0 L 1920.0 1080.0 L 1920.0 0.0 L 0.0 0.0 Z M 0.0 1080.0 " fill="#212121"></path><image xlink:href="5CF02121985D518A50A41281DED397F5.png" width="961.00" height="540.00" transform="matrix(2.01, 0.00, -0.00, -2.01, -5.0, 1083.0)"></image><path d="M 0.0 0.0 L 1800.0 0.0 " fill="none" stroke="#A6AAA9" stroke-width="4.00" transform="matrix(1.00, 0.00, 0.00, -1.00, 60.0, 400.0)"></path><text xml:space="preserve" font-family="DINCondensed-Bold" font-weight="bold" font-size="200.0" fill="#34A4DA" transform="matrix(1.00, 0.00, -0.00, -1.00, 64.0, 222.0)">S</text><text xml:space="preserve" font-family="DINCondensed-Bold" font-weight="bold" font-size="200.0" fill="#34A4DA" transform="matrix(1.00, 0.00, -0.00, -1.00, 145.2, 222.0)">O</text><text xml:space="preserve" font-family="DINCondensed-Bold" font-weight="bold" font-size="200.0" fill="#34A4DA" transform="matrix(1.00, 0.00, -0.00, -1.00, 230.4, 222.0)"> </text><text xml:space="preserve" font-family="DINCondensed-Bold" font-weight="bold" font-size="200.0" fill="#34A4DA" transform="matrix(1.00, 0.00, -0.00, -1.00, 267.6, 222.0)">M</text><text xml:space="preserve" font-family="DINCondensed-Bold" font-weight="bold" font-size="200.0" fill="#34A4DA" transform="matrix(1.00, 0.00, -0.00, -1.00, 378.8, 222.0)">U</text><text xml:space="preserve" font-family="DINCondensed-Bold" font-weight="bold" font-size="200.0" fill="#34A4DA" transform="matrix(1.00, 0.00, -0.00, -1.00, 464.0, 222.0)">C</text><text xml:space="preserve" font-family="DINCondensed-Bold" font-weight="bold" font-size="200.0" fill="#34A4DA" transform="matrix(1.00, 0.00, -0.00, -1.00, 545.4, 222.0)">H</text><text xml:space="preserve" font-family="DINCondensed-Bold" font-weight="bold" font-size="200.0" fill="#34A4DA" transform="matrix(1.00, 0.00, -0.00, -1.00, 630.5, 222.0)"> </text><text xml:space="preserve" font-family="DINCondensed-Bold" font-weight="bold" font-size="200.0" fill="#34A4DA" transform="matrix(1.00, 0.00, -0.00, -1.00, 667.7, 222.0)">M</text><text xml:space="preserve" font-family="DINCondensed-Bold" font-weight="bold" font-size="200.0" fill="#34A4DA" transform="matrix(1.00, 0.00, -0.00, -1.00, 778.9, 222.0)">O</text><text xml:space="preserve" font-family="DINCondensed-Bold" font-weight="bold" font-size="200.0" fill="#34A4DA" transform="matrix(1.00, 0.00, -0.00, -1.00, 864.1, 222.0)">R</text><text xml:space="preserve" font-family="DINCondensed-Bold" font-weight="bold" font-size="200.0" fill="#34A4DA" transform="matrix(1.00, 0.00, -0.00, -1.00, 949.3, 222.0)">E</text><text xml:space="preserve" font-family="DINCondensed-Bold" font-weight="bold" font-size="200.0" fill="#34A4DA" transform="matrix(1.00, 0.00, -0.00, -1.00, 1023.3, 222.0)"> </text><text xml:space="preserve" font-family="DINCondensed-Bold" font-weight="bold" font-size="200.0" fill="#34A4DA" transform="matrix(1.00, 0.00, -0.00, -1.00, 1060.5, 222.0)">A</text><text xml:space="preserve" font-family="DINCondensed-Bold" font-weight="bold" font-size="200.0" fill="#34A4DA" transform="matrix(1.00, 0.00, -0.00, -1.00, 1141.9, 222.0)">B</text><text xml:space="preserve" font-family="DINCondensed-Bold" font-weight="bold" font-size="200.0" fill="#34A4DA" transform="matrix(1.00, 0.00, -0.00, -1.00, 1227.1, 222.0)">O</text><text xml:space="preserve" font-family="DINCondensed-Bold" font-weight="bold" font-size="200.0" fill="#34A4DA" transform="matrix(1.00, 0.00, -0.00, -1.00, 1312.3, 222.0)">U</text><text xml:space="preserve" font-family="DINCondensed-Bold" font-weight="bold" font-size="200.0" fill="#34A4DA" transform="matrix(1.00, 0.00, -0.00, -1.00, 1397.5, 222.0)">T</text><text xml:space="preserve" font-family="DINCondensed-Bold" font-weight="bold" font-size="200.0" fill="#34A4DA" transform="matrix(1.00, 0.00, -0.00, -1.00, 1463.9, 222.0)"> </text><text xml:space="preserve" font-family="DINCondensed-Bold" font-weight="bold" font-size="200.0" fill="#34A4DA" transform="matrix(1.00, 0.00, -0.00, -1.00, 1501.1, 222.0)">T</text><text xml:space="preserve" font-family="DINCondensed-Bold" font-weight="bold" font-size="200.0" fill="#34A4DA" transform="matrix(1.00, 0.00, -0.00, -1.00, 1567.4, 222.0)">H</text><text xml:space="preserve" font-family="DINCondensed-Bold" font-weight="bold" font-size="200.0" fill="#34A4DA" transform="matrix(1.00, 0.00, -0.00, -1.00, 1652.6, 222.0)">E</text><text xml:space="preserve" font-family="DINCondensed-Bold" font-weight="bold" font-size="200.0" fill="#34A4DA" transform="matrix(1.00, 0.00, -0.00, -1.00, 1726.6, 222.0)">M</text><text xml:space="preserve" font-family="DINAlternate-Bold" font-weight="bold" font-size="77.0" fill="#A6AAA9" transform="matrix(1.00, 0.00, -0.00, -1.00, 64.0, 429.0)">M</text><text xml:space="preserve" font-family="DINAlternate-Bold" font-weight="bold" font-size="77.0" fill="#A6AAA9" transform="matrix(1.00, 0.00, -0.00, -1.00, 122.3, 429.0)">O</text><text xml:space="preserve" font-family="DINAlternate-Bold" font-weight="bold" font-size="77.0" fill="#A6AAA9" transform="matrix(1.00, 0.00, -0.00, -1.00, 169.3, 429.0)">N</text><text xml:space="preserve" font-family="DINAlternate-Bold" font-weight="bold" font-size="77.0" fill="#A6AAA9" transform="matrix(1.00, 0.00, -0.00, -1.00, 222.0, 429.0)">O</text><text xml:space="preserve" font-family="DINAlternate-Bold" font-weight="bold" font-size="77.0" fill="#A6AAA9" transform="matrix(1.00, 0.00, -0.00, -1.00, 268.9, 429.0)">L</text><text xml:space="preserve" font-family="DINAlternate-Bold" font-weight="bold" font-size="77.0" fill="#A6AAA9" transform="matrix(1.00, 0.00, -0.00, -1.00, 311.8, 429.0)">I</text><text xml:space="preserve" font-family="DINAlternate-Bold" font-weight="bold" font-size="77.0" fill="#A6AAA9" transform="matrix(1.00, 0.00, -0.00, -1.00, 331.6, 429.0)">T</text><text xml:space="preserve" font-family="DINAlternate-Bold" font-weight="bold" font-size="77.0" fill="#A6AAA9" transform="matrix(1.00, 0.00, -0.00, -1.00, 370.1, 429.0)">H</text><text xml:space="preserve" font-family="DINAlternate-Bold" font-weight="bold" font-size="77.0" fill="#A6AAA9" transform="matrix(1.00, 0.00, -0.00, -1.00, 420.0, 429.0)">S</text><text xml:space="preserve" font-family="DINAlternate-Bold" font-weight="bold" font-size="77.0" fill="#A6AAA9" transform="matrix(1.00, 0.00, -0.00, -1.00, 464.1, 429.0)"> </text><text xml:space="preserve" font-family="DINAlternate-Bold" font-weight="bold" font-size="77.0" fill="#A6AAA9" transform="matrix(1.00, 0.00, -0.00, -1.00, 482.6, 429.0)">A</text><text xml:space="preserve" font-family="DINAlternate-Bold" font-weight="bold" font-size="77.0" fill="#A6AAA9" transform="matrix(1.00, 0.00, -0.00, -1.00, 529.5, 429.0)">N</text><text xml:space="preserve" font-family="DINAlternate-Bold" font-weight="bold" font-size="77.0" fill="#A6AAA9" transform="matrix(1.00, 0.00, -0.00, -1.00, 582.2, 429.0)">D</text><text xml:space="preserve" font-family="DINAlternate-Bold" font-weight="bold" font-size="77.0" fill="#A6AAA9" transform="matrix(1.00, 0.00, -0.00, -1.00, 630.7, 429.0)"> </text><text xml:space="preserve" font-family="DINAlternate-Bold" font-weight="bold" font-size="77.0" fill="#A6AAA9" transform="matrix(1.00, 0.00, -0.00, -1.00, 649.1, 429.0)">M</text><text xml:space="preserve" font-family="DINAlternate-Bold" font-weight="bold" font-size="77.0" fill="#A6AAA9" transform="matrix(1.00, 0.00, -0.00, -1.00, 707.5, 429.0)">I</text><text xml:space="preserve" font-family="DINAlternate-Bold" font-weight="bold" font-size="77.0" fill="#A6AAA9" transform="matrix(1.00, 0.00, -0.00, -1.00, 727.3, 429.0)">C</text><text xml:space="preserve" font-family="DINAlternate-Bold" font-weight="bold" font-size="77.0" fill="#A6AAA9" transform="matrix(1.00, 0.00, -0.00, -1.00, 770.1, 429.0)">R</text><text xml:space="preserve" font-family="DINAlternate-Bold" font-weight="bold" font-size="77.0" fill="#A6AAA9" transform="matrix(1.00, 0.00, -0.00, -1.00, 817.1, 429.0)">O</text><text xml:space="preserve" font-family="DINAlternate-Bold" font-weight="bold" font-size="77.0" fill="#A6AAA9" transform="matrix(1.00, 0.00, -0.00, -1.00, 864.1, 429.0)">S</text><text xml:space="preserve" font-family="DINAlternate-Bold" font-weight="bold" font-size="77.0" fill="#A6AAA9" transform="matrix(1.00, 0.00, -0.00, -1.00, 908.2, 429.0)">E</text><text xml:space="preserve" font-family="DINAlternate-Bold" font-weight="bold" font-size="77.0" fill="#A6AAA9" transform="matrix(1.00, 0.00, -0.00, -1.00, 951.0, 429.0)">R</text><text xml:space="preserve" font-family="DINAlternate-Bold" font-weight="bold" font-size="77.0" fill="#A6AAA9" transform="matrix(1.00, 0.00, -0.00, -1.00, 996.6, 429.0)">V</text><text xml:space="preserve" font-family="DINAlternate-Bold" font-weight="bold" font-size="77.0" fill="#A6AAA9" transform="matrix(1.00, 0.00, -0.00, -1.00, 1039.4, 429.0)">I</text><text xml:space="preserve" font-family="DINAlternate-Bold" font-weight="bold" font-size="77.0" fill="#A6AAA9" transform="matrix(1.00, 0.00, -0.00, -1.00, 1059.3, 429.0)">C</text><text xml:space="preserve" font-family="DINAlternate-Bold" font-weight="bold" font-size="77.0" fill="#A6AAA9" transform="matrix(1.00, 0.00, -0.00, -1.00, 1102.1, 429.0)">E</text><text xml:space="preserve" font-family="DINAlternate-Bold" font-weight="bold" font-size="77.0" fill="#A6AAA9" transform="matrix(1.00, 0.00, -0.00, -1.00, 1145.0, 429.0)">S</text></g></svg>