<?xml version="1.0" encoding="UTF-8" standalone="no"?><svg xmlns="http://www.w3.org/2000/svg" xmlns:xlink="http://www.w3.org/1999/xlink" clip-rule="evenodd" stroke-miterlimit="4.00" viewBox="0 0 1920 1080"><desc>SVG generated by Keynote</desc><defs></defs><g transform="matrix(1.00, 0.00, -0.00, -1.00, 0.0, 1080.0)"><path d="M 0.0 1080.0 L 1920.0 1080.0 L 1920.0 0.0 L 0.0 0.0 Z M 0.0 1080.0 " fill="#212121"></path><text xml:space="preserve" font-family="DINCondensed-Bold" font-weight="bold" font-size="295.6" fill="#34A4DA" transform="matrix(1.00, 0.00, -0.00, -1.00, 74.0, 519.0)">D</text><text xml:space="preserve" font-family="DINCondensed-Bold" font-weight="bold" font-size="295.6" fill="#34A4DA" transform="matrix(1.00, 0.00, -0.00, -1.00, 199.9, 519.0)">E</text><text xml:space="preserve" font-family="DINCondensed-Bold" font-weight="bold" font-size="295.6" fill="#34A4DA" transform="matrix(1.00, 0.00, -0.00, -1.00, 309.3, 519.0)">P</text><text xml:space="preserve" font-family="DINCondensed-Bold" font-weight="bold" font-size="295.6" fill="#34A4DA" transform="matrix(1.00, 0.00, -0.00, -1.00, 429.6, 519.0)">L</text><text xml:space="preserve" font-family="DINCondensed-Bold" font-weight="bold" font-size="295.6" fill="#34A4DA" transform="matrix(1.00, 0.00, -0.00, -1.00, 539.0, 519.0)">O</text><text xml:space="preserve" font-family="DINCondensed-Bold" font-weight="bold" font-size="295.6" fill="#34A4DA" transform="matrix(1.00, 0.00, -0.00, -1.00, 659.6, 519.0)">Y</text><text xml:space="preserve" font-family="DINCondensed-Bold" font-weight="bold" font-size="295.6" fill="#34A4DA" transform="matrix(1.00, 0.00, -0.00, -1.00, 774.3, 519.0)">I</text><text xml:space="preserve" font-family="DINCondensed-Bold" font-weight="bold" font-size="295.6" fill="#34A4DA" transform="matrix(1.00, 0.00, -0.00, -1.00, 834.6, 519.0)">N</text><text xml:space="preserve" font-family="DINCondensed-Bold" font-weight="bold" font-size="295.6" fill="#34A4DA" transform="matrix(1.00, 0.00, -0.00, -1.00, 965.8, 519.0)">G</text><text xml:space="preserve" font-family="DINCondensed-Bold" font-weight="bold" font-size="295.6" fill="#34A4DA" transform="matrix(1.00, 0.00, -0.00, -1.00, 1091.7, 519.0)"> </text><text xml:space="preserve" font-family="DINCondensed-Bold" font-weight="bold" font-size="295.6" fill="#34A4DA" transform="matrix(1.00, 0.00, -0.00, -1.00, 1146.7, 519.0)">I</text><text xml:space="preserve" font-family="DINCondensed-Bold" font-weight="bold" font-size="295.6" fill="#34A4DA" transform="matrix(1.00, 0.00, -0.00, -1.00, 1207.0, 519.0)">S</text><text xml:space="preserve" font-family="DINCondensed-Bold" font-weight="bold" font-size="295.6" fill="#34A4DA" transform="matrix(1.00, 0.00, -0.00, -1.00, 1327.0, 519.0)"> </text><text xml:space="preserve" font-family="DINCondensed-Bold" font-weight="bold" font-size="295.6" fill="#34A4DA" transform="matrix(1.00, 0.00, -0.00, -1.00, 1382.0, 519.0)">E</text><text xml:space="preserve" font-family="DINCondensed-Bold" font-weight="bold" font-size="295.6" fill="#34A4DA" transform="matrix(1.00, 0.00, -0.00, -1.00, 1491.4, 519.0)">A</text><text xml:space="preserve" font-family="DINCondensed-Bold" font-weight="bold" font-size="295.6" fill="#34A4DA" transform="matrix(1.00, 0.00, -0.00, -1.00, 1611.7, 519.0)">S</text><text xml:space="preserve" font-family="DINCondensed-Bold" font-weight="bold" font-size="295.6" fill="#34A4DA" transform="matrix(1.00, 0.00, -0.00, -1.00, 1731.7, 519.0)">Y</text></g></svg>