<?xml version="1.0" encoding="UTF-8" standalone="no"?><svg xmlns="http://www.w3.org/2000/svg" xmlns:xlink="http://www.w3.org/1999/xlink" clip-rule="evenodd" stroke-miterlimit="4.00" viewBox="0 0 1920 1080"><desc>SVG generated by Keynote</desc><defs></defs><g transform="matrix(1.00, 0.00, -0.00, -1.00, 0.0, 1080.0)"><path d="M 0.0 1080.0 L 1920.0 1080.0 L 1920.0 0.0 L 0.0 0.0 Z M 0.0 1080.0 " fill="#212121"></path><g><clipPath id="clip-20"><path d="M 393.0 698.0 L 926.0 698.0 L 926.0 383.0 L 393.0 383.0 Z M 392.6 697.5 "></path></clipPath><g clip-path="url(#clip-20)"><image xlink:href="../../338FFB90-5514-41B8-9F35-FA5BE9EF7B71/assets/E08E7D2E815B4A58089AFC14B0FC99E5.png" width="854.00" height="315.00" transform="matrix(1.00, 0.00, -0.00, -1.00, 393.0, 697.0)"></image></g></g><g><clipPath id="clip-21"><path d="M 947.0 645.0 L 1469.0 645.0 L 1469.0 435.0 L 947.0 435.0 Z M 947.3 645.3 "></path></clipPath><g clip-path="url(#clip-21)"><image xlink:href="../../7368995E-D6C4-4AD5-8B07-5720FD808CA7/assets/2BAC1C5B7546A1ECDCC3830C7ED3E4D3.png" width="960.00" height="540.00" transform="matrix(6.48, 0.00, -0.00, -6.48, -1250.0, 2006.0)"></image></g></g><path d="M 259.9 694.0 L 1647.3 694.0 L 1647.3 386.0 L 259.9 386.0 Z M 259.9 694.0 " fill="#E42731"></path><g><clipPath id="clip-22"><path d="M 188.9 255.0 L 1718.3 255.0 L 1718.3 765.0 L 188.9 765.0 Z M 188.9 255.0 "></path></clipPath><g clip-path="url(#clip-22)"><text xml:space="preserve" font-family="DINCondensed-Bold" font-weight="bold" font-size="300.0" fill="#FFFFFF" transform="matrix(1.00, 0.00, -0.00, -1.00, 707.0, 476.0)">N</text><text xml:space="preserve" font-family="DINCondensed-Bold" font-weight="bold" font-size="300.0" fill="#FFFFFF" transform="matrix(1.00, 0.00, -0.00, -1.00, 840.2, 476.0)">O</text><text xml:space="preserve" font-family="DINCondensed-Bold" font-weight="bold" font-size="300.0" fill="#FFFFFF" transform="matrix(1.00, 0.00, -0.00, -1.00, 968.0, 476.0)">P</text><text xml:space="preserve" font-family="DINCondensed-Bold" font-weight="bold" font-size="300.0" fill="#FFFFFF" transform="matrix(1.00, 0.00, -0.00, -1.00, 1090.1, 476.0)">E</text></g></g></g></svg>