<?xml version="1.0" encoding="UTF-8" standalone="no"?><svg xmlns="http://www.w3.org/2000/svg" xmlns:xlink="http://www.w3.org/1999/xlink" clip-rule="evenodd" stroke-miterlimit="4.00" viewBox="0 0 1920 1080"><desc>SVG generated by Keynote</desc><defs></defs><g transform="matrix(1.00, 0.00, -0.00, -1.00, 0.0, 1080.0)"><path d="M 0.0 1080.0 L 1920.0 1080.0 L 1920.0 0.0 L 0.0 0.0 Z M 0.0 1080.0 " fill="#212121"></path><text xml:space="preserve" font-family="DINCondensed-Bold" font-weight="bold" font-size="275.6" fill="#00CBD9" transform="matrix(1.00, 0.00, -0.00, -1.00, 78.0, 533.0)">E</text><text xml:space="preserve" font-family="DINCondensed-Bold" font-weight="bold" font-size="275.6" fill="#00CBD9" transform="matrix(1.00, 0.00, -0.00, -1.00, 180.0, 533.0)">A</text><text xml:space="preserve" font-family="DINCondensed-Bold" font-weight="bold" font-size="275.6" fill="#00CBD9" transform="matrix(1.00, 0.00, -0.00, -1.00, 292.1, 533.0)">S</text><text xml:space="preserve" font-family="DINCondensed-Bold" font-weight="bold" font-size="275.6" fill="#00CBD9" transform="matrix(1.00, 0.00, -0.00, -1.00, 404.0, 533.0)">Y</text><text xml:space="preserve" font-family="DINCondensed-Bold" font-weight="bold" font-size="275.6" fill="#00CBD9" transform="matrix(1.00, 0.00, -0.00, -1.00, 510.9, 533.0)"> </text><text xml:space="preserve" font-family="DINCondensed-Bold" font-weight="bold" font-size="275.6" fill="#00CBD9" transform="matrix(1.00, 0.00, -0.00, -1.00, 562.1, 533.0)">M</text><text xml:space="preserve" font-family="DINCondensed-Bold" font-weight="bold" font-size="275.6" fill="#00CBD9" transform="matrix(1.00, 0.00, -0.00, -1.00, 715.3, 533.0)">O</text><text xml:space="preserve" font-family="DINCondensed-Bold" font-weight="bold" font-size="275.6" fill="#00CBD9" transform="matrix(1.00, 0.00, -0.00, -1.00, 832.7, 533.0)">D</text><text xml:space="preserve" font-family="DINCondensed-Bold" font-weight="bold" font-size="275.6" fill="#00CBD9" transform="matrix(1.00, 0.00, -0.00, -1.00, 950.1, 533.0)">E</text><text xml:space="preserve" font-family="DINCondensed-Bold" font-weight="bold" font-size="275.6" fill="#00CBD9" transform="matrix(1.00, 0.00, -0.00, -1.00, 1052.1, 533.0)">L</text><text xml:space="preserve" font-family="DINCondensed-Bold" font-weight="bold" font-size="275.6" fill="#00CBD9" transform="matrix(1.00, 0.00, -0.00, -1.00, 1154.0, 533.0)">L</text><text xml:space="preserve" font-family="DINCondensed-Bold" font-weight="bold" font-size="275.6" fill="#00CBD9" transform="matrix(1.00, 0.00, -0.00, -1.00, 1256.0, 533.0)">I</text><text xml:space="preserve" font-family="DINCondensed-Bold" font-weight="bold" font-size="275.6" fill="#00CBD9" transform="matrix(1.00, 0.00, -0.00, -1.00, 1312.2, 533.0)">N</text><text xml:space="preserve" font-family="DINCondensed-Bold" font-weight="bold" font-size="275.6" fill="#00CBD9" transform="matrix(1.00, 0.00, -0.00, -1.00, 1434.5, 533.0)">G</text><text xml:space="preserve" font-family="DINCondensed-Bold" font-weight="bold" font-size="275.6" fill="#00CBD9" transform="matrix(1.00, 0.00, -0.00, -1.00, 1551.9, 533.0)"> </text><text xml:space="preserve" font-family="DINCondensed-Bold" font-weight="bold" font-size="275.6" fill="#00CBD9" transform="matrix(1.00, 0.00, -0.00, -1.00, 1603.2, 533.0)">O</text><text xml:space="preserve" font-family="DINCondensed-Bold" font-weight="bold" font-size="275.6" fill="#00CBD9" transform="matrix(1.00, 0.00, -0.00, -1.00, 1720.6, 533.0)">N</text><text xml:space="preserve" font-family="DINCondensed-Bold" font-weight="bold" font-size="275.6" fill="#00CBD9" transform="matrix(1.00, 0.00, -0.00, -1.00, 1842.9, 533.0)"> </text><text xml:space="preserve" font-family="DINCondensed-Bold" font-weight="bold" font-size="275.6" fill="#00CBD9" transform="matrix(1.00, 0.00, -0.00, -1.00, 99.0, 258.0)">U</text><text xml:space="preserve" font-family="DINCondensed-Bold" font-weight="bold" font-size="275.6" fill="#00CBD9" transform="matrix(1.00, 0.00, -0.00, -1.00, 216.4, 258.0)">N</text><text xml:space="preserve" font-family="DINCondensed-Bold" font-weight="bold" font-size="275.6" fill="#00CBD9" transform="matrix(1.00, 0.00, -0.00, -1.00, 338.7, 258.0)">K</text><text xml:space="preserve" font-family="DINCondensed-Bold" font-weight="bold" font-size="275.6" fill="#00CBD9" transform="matrix(1.00, 0.00, -0.00, -1.00, 456.1, 258.0)">N</text><text xml:space="preserve" font-family="DINCondensed-Bold" font-weight="bold" font-size="275.6" fill="#00CBD9" transform="matrix(1.00, 0.00, -0.00, -1.00, 578.5, 258.0)">O</text><text xml:space="preserve" font-family="DINCondensed-Bold" font-weight="bold" font-size="275.6" fill="#00CBD9" transform="matrix(1.00, 0.00, -0.00, -1.00, 692.5, 258.0)">W</text><text xml:space="preserve" font-family="DINCondensed-Bold" font-weight="bold" font-size="275.6" fill="#00CBD9" transform="matrix(1.00, 0.00, -0.00, -1.00, 855.9, 258.0)">N</text><text xml:space="preserve" font-family="DINCondensed-Bold" font-weight="bold" font-size="275.6" fill="#00CBD9" transform="matrix(1.00, 0.00, -0.00, -1.00, 978.3, 258.0)"> </text><text xml:space="preserve" font-family="DINCondensed-Bold" font-weight="bold" font-size="275.6" fill="#00CBD9" transform="matrix(1.00, 0.00, -0.00, -1.00, 1029.5, 258.0)">D</text><text xml:space="preserve" font-family="DINCondensed-Bold" font-weight="bold" font-size="275.6" fill="#00CBD9" transform="matrix(1.00, 0.00, -0.00, -1.00, 1146.9, 258.0)">O</text><text xml:space="preserve" font-family="DINCondensed-Bold" font-weight="bold" font-size="275.6" fill="#00CBD9" transform="matrix(1.00, 0.00, -0.00, -1.00, 1264.3, 258.0)">M</text><text xml:space="preserve" font-family="DINCondensed-Bold" font-weight="bold" font-size="275.6" fill="#00CBD9" transform="matrix(1.00, 0.00, -0.00, -1.00, 1417.5, 258.0)">A</text><text xml:space="preserve" font-family="DINCondensed-Bold" font-weight="bold" font-size="275.6" fill="#00CBD9" transform="matrix(1.00, 0.00, -0.00, -1.00, 1529.7, 258.0)">I</text><text xml:space="preserve" font-family="DINCondensed-Bold" font-weight="bold" font-size="275.6" fill="#00CBD9" transform="matrix(1.00, 0.00, -0.00, -1.00, 1585.9, 258.0)">N</text><text xml:space="preserve" font-family="DINCondensed-Bold" font-weight="bold" font-size="275.6" fill="#00CBD9" transform="matrix(1.00, 0.00, -0.00, -1.00, 1708.2, 258.0)">S</text></g></svg>