<?xml version="1.0" encoding="UTF-8" standalone="no"?><svg xmlns="http://www.w3.org/2000/svg" xmlns:xlink="http://www.w3.org/1999/xlink" clip-rule="evenodd" stroke-miterlimit="4.00" viewBox="0 0 1920 1080"><desc>SVG generated by Keynote</desc><defs></defs><g transform="matrix(1.00, 0.00, -0.00, -1.00, 0.0, 1080.0)"><path d="M 0.0 1080.0 L 1920.0 1080.0 L 1920.0 0.0 L 0.0 0.0 Z M 0.0 1080.0 " fill="#212121"></path><text xml:space="preserve" font-family="DINCondensed-Bold" font-weight="bold" font-size="245.5" fill="#00CBD9" transform="matrix(1.00, 0.00, -0.00, -1.00, 73.0, 553.0)">N</text><text xml:space="preserve" font-family="DINCondensed-Bold" font-weight="bold" font-size="245.5" fill="#00CBD9" transform="matrix(1.00, 0.00, -0.00, -1.00, 182.0, 553.0)">O</text><text xml:space="preserve" font-family="DINCondensed-Bold" font-weight="bold" font-size="245.5" fill="#00CBD9" transform="matrix(1.00, 0.00, -0.00, -1.00, 286.6, 553.0)"> </text><text xml:space="preserve" font-family="DINCondensed-Bold" font-weight="bold" font-size="245.5" fill="#00CBD9" transform="matrix(1.00, 0.00, -0.00, -1.00, 332.2, 553.0)">N</text><text xml:space="preserve" font-family="DINCondensed-Bold" font-weight="bold" font-size="245.5" fill="#00CBD9" transform="matrix(1.00, 0.00, -0.00, -1.00, 441.2, 553.0)">E</text><text xml:space="preserve" font-family="DINCondensed-Bold" font-weight="bold" font-size="245.5" fill="#00CBD9" transform="matrix(1.00, 0.00, -0.00, -1.00, 532.1, 553.0)">E</text><text xml:space="preserve" font-family="DINCondensed-Bold" font-weight="bold" font-size="245.5" fill="#00CBD9" transform="matrix(1.00, 0.00, -0.00, -1.00, 622.9, 553.0)">D</text><text xml:space="preserve" font-family="DINCondensed-Bold" font-weight="bold" font-size="245.5" fill="#00CBD9" transform="matrix(1.00, 0.00, -0.00, -1.00, 727.5, 553.0)"> </text><text xml:space="preserve" font-family="DINCondensed-Bold" font-weight="bold" font-size="245.5" fill="#00CBD9" transform="matrix(1.00, 0.00, -0.00, -1.00, 773.1, 553.0)">T</text><text xml:space="preserve" font-family="DINCondensed-Bold" font-weight="bold" font-size="245.5" fill="#00CBD9" transform="matrix(1.00, 0.00, -0.00, -1.00, 851.7, 553.0)">O</text><text xml:space="preserve" font-family="DINCondensed-Bold" font-weight="bold" font-size="245.5" fill="#00CBD9" transform="matrix(1.00, 0.00, -0.00, -1.00, 956.3, 553.0)"> </text><text xml:space="preserve" font-family="DINCondensed-Bold" font-weight="bold" font-size="245.5" fill="#00CBD9" transform="matrix(1.00, 0.00, -0.00, -1.00, 1001.9, 553.0)">H</text><text xml:space="preserve" font-family="DINCondensed-Bold" font-weight="bold" font-size="245.5" fill="#00CBD9" transform="matrix(1.00, 0.00, -0.00, -1.00, 1106.5, 553.0)">U</text><text xml:space="preserve" font-family="DINCondensed-Bold" font-weight="bold" font-size="245.5" fill="#00CBD9" transform="matrix(1.00, 0.00, -0.00, -1.00, 1211.1, 553.0)">N</text><text xml:space="preserve" font-family="DINCondensed-Bold" font-weight="bold" font-size="245.5" fill="#00CBD9" transform="matrix(1.00, 0.00, -0.00, -1.00, 1320.1, 553.0)">T</text><text xml:space="preserve" font-family="DINCondensed-Bold" font-weight="bold" font-size="245.5" fill="#00CBD9" transform="matrix(1.00, 0.00, -0.00, -1.00, 1401.6, 553.0)"> </text><text xml:space="preserve" font-family="DINCondensed-Bold" font-weight="bold" font-size="245.5" fill="#00CBD9" transform="matrix(1.00, 0.00, -0.00, -1.00, 1447.3, 553.0)">L</text><text xml:space="preserve" font-family="DINCondensed-Bold" font-weight="bold" font-size="245.5" fill="#00CBD9" transform="matrix(1.00, 0.00, -0.00, -1.00, 1538.1, 553.0)">O</text><text xml:space="preserve" font-family="DINCondensed-Bold" font-weight="bold" font-size="245.5" fill="#00CBD9" transform="matrix(1.00, 0.00, -0.00, -1.00, 1642.7, 553.0)">G</text><text xml:space="preserve" font-family="DINCondensed-Bold" font-weight="bold" font-size="245.5" fill="#00CBD9" transform="matrix(1.00, 0.00, -0.00, -1.00, 1747.2, 553.0)">S</text><text xml:space="preserve" font-family="DINCondensed-Bold" font-weight="bold" font-size="245.5" fill="#00CBD9" transform="matrix(1.00, 0.00, -0.00, -1.00, 1846.9, 553.0)"> </text><text xml:space="preserve" font-family="DINCondensed-Bold" font-weight="bold" font-size="245.5" fill="#00CBD9" transform="matrix(1.00, 0.00, -0.00, -1.00, 77.0, 307.0)">I</text><text xml:space="preserve" font-family="DINCondensed-Bold" font-weight="bold" font-size="245.5" fill="#00CBD9" transform="matrix(1.00, 0.00, -0.00, -1.00, 127.1, 307.0)">N</text><text xml:space="preserve" font-family="DINCondensed-Bold" font-weight="bold" font-size="245.5" fill="#00CBD9" transform="matrix(1.00, 0.00, -0.00, -1.00, 236.1, 307.0)"> </text><text xml:space="preserve" font-family="DINCondensed-Bold" font-weight="bold" font-size="245.5" fill="#00CBD9" transform="matrix(1.00, 0.00, -0.00, -1.00, 281.7, 307.0)">D</text><text xml:space="preserve" font-family="DINCondensed-Bold" font-weight="bold" font-size="245.5" fill="#00CBD9" transform="matrix(1.00, 0.00, -0.00, -1.00, 386.3, 307.0)">I</text><text xml:space="preserve" font-family="DINCondensed-Bold" font-weight="bold" font-size="245.5" fill="#00CBD9" transform="matrix(1.00, 0.00, -0.00, -1.00, 436.4, 307.0)">F</text><text xml:space="preserve" font-family="DINCondensed-Bold" font-weight="bold" font-size="245.5" fill="#00CBD9" transform="matrix(1.00, 0.00, -0.00, -1.00, 527.2, 307.0)">F</text><text xml:space="preserve" font-family="DINCondensed-Bold" font-weight="bold" font-size="245.5" fill="#00CBD9" transform="matrix(1.00, 0.00, -0.00, -1.00, 618.1, 307.0)">E</text><text xml:space="preserve" font-family="DINCondensed-Bold" font-weight="bold" font-size="245.5" fill="#00CBD9" transform="matrix(1.00, 0.00, -0.00, -1.00, 708.9, 307.0)">R</text><text xml:space="preserve" font-family="DINCondensed-Bold" font-weight="bold" font-size="245.5" fill="#00CBD9" transform="matrix(1.00, 0.00, -0.00, -1.00, 813.5, 307.0)">E</text><text xml:space="preserve" font-family="DINCondensed-Bold" font-weight="bold" font-size="245.5" fill="#00CBD9" transform="matrix(1.00, 0.00, -0.00, -1.00, 904.3, 307.0)">N</text><text xml:space="preserve" font-family="DINCondensed-Bold" font-weight="bold" font-size="245.5" fill="#00CBD9" transform="matrix(1.00, 0.00, -0.00, -1.00, 1013.3, 307.0)">T</text><text xml:space="preserve" font-family="DINCondensed-Bold" font-weight="bold" font-size="245.5" fill="#00CBD9" transform="matrix(1.00, 0.00, -0.00, -1.00, 1094.8, 307.0)"> </text><text xml:space="preserve" font-family="DINCondensed-Bold" font-weight="bold" font-size="245.5" fill="#00CBD9" transform="matrix(1.00, 0.00, -0.00, -1.00, 1140.5, 307.0)">S</text><text xml:space="preserve" font-family="DINCondensed-Bold" font-weight="bold" font-size="245.5" fill="#00CBD9" transform="matrix(1.00, 0.00, -0.00, -1.00, 1240.1, 307.0)">Y</text><text xml:space="preserve" font-family="DINCondensed-Bold" font-weight="bold" font-size="245.5" fill="#00CBD9" transform="matrix(1.00, 0.00, -0.00, -1.00, 1335.4, 307.0)">S</text><text xml:space="preserve" font-family="DINCondensed-Bold" font-weight="bold" font-size="245.5" fill="#00CBD9" transform="matrix(1.00, 0.00, -0.00, -1.00, 1435.1, 307.0)">T</text><text xml:space="preserve" font-family="DINCondensed-Bold" font-weight="bold" font-size="245.5" fill="#00CBD9" transform="matrix(1.00, 0.00, -0.00, -1.00, 1516.6, 307.0)">E</text><text xml:space="preserve" font-family="DINCondensed-Bold" font-weight="bold" font-size="245.5" fill="#00CBD9" transform="matrix(1.00, 0.00, -0.00, -1.00, 1607.4, 307.0)">M</text><text xml:space="preserve" font-family="DINCondensed-Bold" font-weight="bold" font-size="245.5" fill="#00CBD9" transform="matrix(1.00, 0.00, -0.00, -1.00, 1743.9, 307.0)">S</text></g></svg>