<?xml version="1.0" encoding="UTF-8" standalone="no"?><svg xmlns="http://www.w3.org/2000/svg" xmlns:xlink="http://www.w3.org/1999/xlink" clip-rule="evenodd" stroke-miterlimit="4.00" viewBox="0 0 1920 1080"><desc>SVG generated by Keynote</desc><defs></defs><g transform="matrix(1.00, 0.00, -0.00, -1.00, 0.0, 1080.0)"><path d="M 0.0 1080.0 L 1920.0 1080.0 L 1920.0 0.0 L 0.0 0.0 Z M 0.0 1080.0 " fill="#212121"></path><text xml:space="preserve" font-family="DINCondensed-Bold" font-weight="bold" font-size="290.6" fill="#34A4DA" transform="matrix(1.00, 0.00, -0.00, -1.00, 392.0, 521.0)">W</text><text xml:space="preserve" font-family="DINCondensed-Bold" font-weight="bold" font-size="290.6" fill="#34A4DA" transform="matrix(1.00, 0.00, -0.00, -1.00, 564.3, 521.0)">H</text><text xml:space="preserve" font-family="DINCondensed-Bold" font-weight="bold" font-size="290.6" fill="#34A4DA" transform="matrix(1.00, 0.00, -0.00, -1.00, 688.1, 521.0)">A</text><text xml:space="preserve" font-family="DINCondensed-Bold" font-weight="bold" font-size="290.6" fill="#34A4DA" transform="matrix(1.00, 0.00, -0.00, -1.00, 790.4, 521.0)">T</text><text xml:space="preserve" font-family="DINCondensed-Bold" font-weight="bold" font-size="290.6" fill="#34A4DA" transform="matrix(1.00, 0.00, -0.00, -1.00, 886.9, 521.0)"> </text><text xml:space="preserve" font-family="DINCondensed-Bold" font-weight="bold" font-size="290.6" fill="#34A4DA" transform="matrix(1.00, 0.00, -0.00, -1.00, 940.9, 521.0)">A</text><text xml:space="preserve" font-family="DINCondensed-Bold" font-weight="bold" font-size="290.6" fill="#34A4DA" transform="matrix(1.00, 0.00, -0.00, -1.00, 1059.2, 521.0)">B</text><text xml:space="preserve" font-family="DINCondensed-Bold" font-weight="bold" font-size="290.6" fill="#34A4DA" transform="matrix(1.00, 0.00, -0.00, -1.00, 1183.0, 521.0)">O</text><text xml:space="preserve" font-family="DINCondensed-Bold" font-weight="bold" font-size="290.6" fill="#34A4DA" transform="matrix(1.00, 0.00, -0.00, -1.00, 1306.7, 521.0)">U</text><text xml:space="preserve" font-family="DINCondensed-Bold" font-weight="bold" font-size="290.6" fill="#34A4DA" transform="matrix(1.00, 0.00, -0.00, -1.00, 1430.5, 521.0)">T</text><text xml:space="preserve" font-family="DINCondensed-Bold" font-weight="bold" font-size="290.6" fill="#34A4DA" transform="matrix(1.00, 0.00, -0.00, -1.00, 1527.0, 521.0)"> </text><text xml:space="preserve" font-family="DINCondensed-Bold" font-weight="bold" font-size="290.6" fill="#34A4DA" transform="matrix(1.00, 0.00, -0.00, -1.00, 332.0, 230.0)">B</text><text xml:space="preserve" font-family="DINCondensed-Bold" font-weight="bold" font-size="290.6" fill="#34A4DA" transform="matrix(1.00, 0.00, -0.00, -1.00, 455.8, 230.0)">O</text><text xml:space="preserve" font-family="DINCondensed-Bold" font-weight="bold" font-size="290.6" fill="#34A4DA" transform="matrix(1.00, 0.00, -0.00, -1.00, 579.6, 230.0)">U</text><text xml:space="preserve" font-family="DINCondensed-Bold" font-weight="bold" font-size="290.6" fill="#34A4DA" transform="matrix(1.00, 0.00, -0.00, -1.00, 703.4, 230.0)">N</text><text xml:space="preserve" font-family="DINCondensed-Bold" font-weight="bold" font-size="290.6" fill="#34A4DA" transform="matrix(1.00, 0.00, -0.00, -1.00, 832.4, 230.0)">D</text><text xml:space="preserve" font-family="DINCondensed-Bold" font-weight="bold" font-size="290.6" fill="#34A4DA" transform="matrix(1.00, 0.00, -0.00, -1.00, 952.7, 230.0)">A</text><text xml:space="preserve" font-family="DINCondensed-Bold" font-weight="bold" font-size="290.6" fill="#34A4DA" transform="matrix(1.00, 0.00, -0.00, -1.00, 1070.9, 230.0)">R</text><text xml:space="preserve" font-family="DINCondensed-Bold" font-weight="bold" font-size="290.6" fill="#34A4DA" transform="matrix(1.00, 0.00, -0.00, -1.00, 1194.7, 230.0)">I</text><text xml:space="preserve" font-family="DINCondensed-Bold" font-weight="bold" font-size="290.6" fill="#34A4DA" transform="matrix(1.00, 0.00, -0.00, -1.00, 1254.0, 230.0)">E</text><text xml:space="preserve" font-family="DINCondensed-Bold" font-weight="bold" font-size="290.6" fill="#34A4DA" transform="matrix(1.00, 0.00, -0.00, -1.00, 1361.5, 230.0)">S</text><text xml:space="preserve" font-family="DINCondensed-Bold" font-weight="bold" font-size="290.6" fill="#34A4DA" transform="matrix(1.00, 0.00, -0.00, -1.00, 1479.5, 230.0)">?</text></g></svg>