<?xml version="1.0" encoding="UTF-8" standalone="no"?><svg xmlns="http://www.w3.org/2000/svg" xmlns:xlink="http://www.w3.org/1999/xlink" clip-rule="evenodd" stroke-miterlimit="4.00" viewBox="0 0 1920 1080"><desc>SVG generated by Keynote</desc><defs></defs><g transform="matrix(1.00, 0.00, -0.00, -1.00, 0.0, 1080.0)"><path d="M 0.0 1080.0 L 1920.0 1080.0 L 1920.0 0.0 L 0.0 0.0 Z M 0.0 1080.0 " fill="#212121"></path><image xlink:href="../../3BD73F79-EF3E-47EA-AC74-316618FBFB0E/assets/1C5493C229A706E97F46D6F81C4B63E6.png" width="502.00" height="492.00" transform="matrix(1.85, 0.00, -0.00, -1.85, 495.0, 935.0)"></image><path d="M 259.9 694.0 L 1647.3 694.0 L 1647.3 386.0 L 259.9 386.0 Z M 259.9 694.0 " fill="#E42731"></path><g><clipPath id="clip-27"><path d="M 188.9 255.0 L 1718.3 255.0 L 1718.3 765.0 L 188.9 765.0 Z M 188.9 255.0 "></path></clipPath><g clip-path="url(#clip-27)"><text xml:space="preserve" font-family="DINCondensed-Bold" font-weight="bold" font-size="300.0" fill="#FFFFFF" transform="matrix(1.00, 0.00, -0.00, -1.00, 707.0, 476.0)">N</text><text xml:space="preserve" font-family="DINCondensed-Bold" font-weight="bold" font-size="300.0" fill="#FFFFFF" transform="matrix(1.00, 0.00, -0.00, -1.00, 840.2, 476.0)">O</text><text xml:space="preserve" font-family="DINCondensed-Bold" font-weight="bold" font-size="300.0" fill="#FFFFFF" transform="matrix(1.00, 0.00, -0.00, -1.00, 968.0, 476.0)">P</text><text xml:space="preserve" font-family="DINCondensed-Bold" font-weight="bold" font-size="300.0" fill="#FFFFFF" transform="matrix(1.00, 0.00, -0.00, -1.00, 1090.1, 476.0)">E</text></g></g></g></svg>