<?xml version="1.0" encoding="UTF-8" standalone="no"?><svg xmlns="http://www.w3.org/2000/svg" xmlns:xlink="http://www.w3.org/1999/xlink" clip-rule="evenodd" stroke-miterlimit="4.00" viewBox="0 0 1920 1080"><desc>SVG generated by Keynote</desc><defs></defs><g transform="matrix(1.00, 0.00, -0.00, -1.00, 0.0, 1080.0)"><path d="M 0.0 1080.0 L 1920.0 1080.0 L 1920.0 0.0 L 0.0 0.0 Z M 0.0 1080.0 " fill="#212121"></path><path d="M 0.0 0.0 L 1800.0 0.0 " fill="none" stroke="#A6AAA9" stroke-width="4.00" transform="matrix(1.00, 0.00, 0.00, -1.00, 60.0, 400.0)"></path><text xml:space="preserve" font-family="DINCondensed-Bold" font-weight="bold" font-size="182.7" fill="#34A4DA" transform="matrix(1.00, 0.00, -0.00, -1.00, 64.0, 435.0)">M</text><text xml:space="preserve" font-family="DINCondensed-Bold" font-weight="bold" font-size="182.7" fill="#34A4DA" transform="matrix(1.00, 0.00, -0.00, -1.00, 165.6, 435.0)">O</text><text xml:space="preserve" font-family="DINCondensed-Bold" font-weight="bold" font-size="182.7" fill="#34A4DA" transform="matrix(1.00, 0.00, -0.00, -1.00, 243.4, 435.0)">N</text><text xml:space="preserve" font-family="DINCondensed-Bold" font-weight="bold" font-size="182.7" fill="#34A4DA" transform="matrix(1.00, 0.00, -0.00, -1.00, 324.5, 435.0)">O</text><text xml:space="preserve" font-family="DINCondensed-Bold" font-weight="bold" font-size="182.7" fill="#34A4DA" transform="matrix(1.00, 0.00, -0.00, -1.00, 402.4, 435.0)">L</text><text xml:space="preserve" font-family="DINCondensed-Bold" font-weight="bold" font-size="182.7" fill="#34A4DA" transform="matrix(1.00, 0.00, -0.00, -1.00, 470.0, 435.0)">I</text><text xml:space="preserve" font-family="DINCondensed-Bold" font-weight="bold" font-size="182.7" fill="#34A4DA" transform="matrix(1.00, 0.00, -0.00, -1.00, 507.2, 435.0)">T</text><text xml:space="preserve" font-family="DINCondensed-Bold" font-weight="bold" font-size="182.7" fill="#34A4DA" transform="matrix(1.00, 0.00, -0.00, -1.00, 567.9, 435.0)">H</text><text xml:space="preserve" font-family="DINCondensed-Bold" font-weight="bold" font-size="182.7" fill="#34A4DA" transform="matrix(1.00, 0.00, -0.00, -1.00, 645.7, 435.0)">S</text><text xml:space="preserve" font-family="DINCondensed-Bold" font-weight="bold" font-size="182.7" fill="#34A4DA" transform="matrix(1.00, 0.00, -0.00, -1.00, 719.9, 435.0)"> </text><text xml:space="preserve" font-family="DINCondensed-Bold" font-weight="bold" font-size="182.7" fill="#34A4DA" transform="matrix(1.00, 0.00, -0.00, -1.00, 753.9, 435.0)">A</text><text xml:space="preserve" font-family="DINCondensed-Bold" font-weight="bold" font-size="182.7" fill="#34A4DA" transform="matrix(1.00, 0.00, -0.00, -1.00, 828.2, 435.0)">R</text><text xml:space="preserve" font-family="DINCondensed-Bold" font-weight="bold" font-size="182.7" fill="#34A4DA" transform="matrix(1.00, 0.00, -0.00, -1.00, 906.1, 435.0)">E</text><text xml:space="preserve" font-family="DINCondensed-Bold" font-weight="bold" font-size="182.7" fill="#34A4DA" transform="matrix(1.00, 0.00, -0.00, -1.00, 973.7, 435.0)"> </text><text xml:space="preserve" font-family="DINCondensed-Bold" font-weight="bold" font-size="182.7" fill="#34A4DA" transform="matrix(1.00, 0.00, -0.00, -1.00, 1007.6, 435.0)">Y</text><text xml:space="preserve" font-family="DINCondensed-Bold" font-weight="bold" font-size="182.7" fill="#34A4DA" transform="matrix(1.00, 0.00, -0.00, -1.00, 1078.5, 435.0)">O</text><text xml:space="preserve" font-family="DINCondensed-Bold" font-weight="bold" font-size="182.7" fill="#34A4DA" transform="matrix(1.00, 0.00, -0.00, -1.00, 1156.4, 435.0)">U</text><text xml:space="preserve" font-family="DINCondensed-Bold" font-weight="bold" font-size="182.7" fill="#34A4DA" transform="matrix(1.00, 0.00, -0.00, -1.00, 1234.2, 435.0)">R</text><text xml:space="preserve" font-family="DINCondensed-Bold" font-weight="bold" font-size="182.7" fill="#34A4DA" transform="matrix(1.00, 0.00, -0.00, -1.00, 1312.0, 435.0)"> </text><text xml:space="preserve" font-family="DINCondensed-Bold" font-weight="bold" font-size="182.7" fill="#34A4DA" transform="matrix(1.00, 0.00, -0.00, -1.00, 1346.0, 435.0)">F</text><text xml:space="preserve" font-family="DINCondensed-Bold" font-weight="bold" font-size="182.7" fill="#34A4DA" transform="matrix(1.00, 0.00, -0.00, -1.00, 1413.6, 435.0)">R</text><text xml:space="preserve" font-family="DINCondensed-Bold" font-weight="bold" font-size="182.7" fill="#34A4DA" transform="matrix(1.00, 0.00, -0.00, -1.00, 1491.4, 435.0)">I</text><text xml:space="preserve" font-family="DINCondensed-Bold" font-weight="bold" font-size="182.7" fill="#34A4DA" transform="matrix(1.00, 0.00, -0.00, -1.00, 1528.7, 435.0)">E</text><text xml:space="preserve" font-family="DINCondensed-Bold" font-weight="bold" font-size="182.7" fill="#34A4DA" transform="matrix(1.00, 0.00, -0.00, -1.00, 1596.3, 435.0)">N</text><text xml:space="preserve" font-family="DINCondensed-Bold" font-weight="bold" font-size="182.7" fill="#34A4DA" transform="matrix(1.00, 0.00, -0.00, -1.00, 1677.4, 435.0)">D</text><text xml:space="preserve" font-family="DINCondensed-Bold" font-weight="bold" font-size="182.7" fill="#34A4DA" transform="matrix(1.00, 0.00, -0.00, -1.00, 1755.3, 435.0)">S</text><text xml:space="preserve" font-family="DINAlternate-Bold" font-weight="bold" font-size="77.0" fill="#A6AAA9" transform="matrix(1.00, 0.00, -0.00, -1.00, 64.0, 331.0)">M</text><text xml:space="preserve" font-family="DINAlternate-Bold" font-weight="bold" font-size="77.0" fill="#A6AAA9" transform="matrix(1.00, 0.00, -0.00, -1.00, 122.3, 331.0)">O</text><text xml:space="preserve" font-family="DINAlternate-Bold" font-weight="bold" font-size="77.0" fill="#A6AAA9" transform="matrix(1.00, 0.00, -0.00, -1.00, 169.3, 331.0)">S</text><text xml:space="preserve" font-family="DINAlternate-Bold" font-weight="bold" font-size="77.0" fill="#A6AAA9" transform="matrix(1.00, 0.00, -0.00, -1.00, 213.4, 331.0)">T</text><text xml:space="preserve" font-family="DINAlternate-Bold" font-weight="bold" font-size="77.0" fill="#A6AAA9" transform="matrix(1.00, 0.00, -0.00, -1.00, 251.9, 331.0)"> </text><text xml:space="preserve" font-family="DINAlternate-Bold" font-weight="bold" font-size="77.0" fill="#A6AAA9" transform="matrix(1.00, 0.00, -0.00, -1.00, 270.4, 331.0)">O</text><text xml:space="preserve" font-family="DINAlternate-Bold" font-weight="bold" font-size="77.0" fill="#A6AAA9" transform="matrix(1.00, 0.00, -0.00, -1.00, 317.3, 331.0)">F</text><text xml:space="preserve" font-family="DINAlternate-Bold" font-weight="bold" font-size="77.0" fill="#A6AAA9" transform="matrix(1.00, 0.00, -0.00, -1.00, 358.7, 331.0)"> </text><text xml:space="preserve" font-family="DINAlternate-Bold" font-weight="bold" font-size="77.0" fill="#A6AAA9" transform="matrix(1.00, 0.00, -0.00, -1.00, 377.1, 331.0)">T</text><text xml:space="preserve" font-family="DINAlternate-Bold" font-weight="bold" font-size="77.0" fill="#A6AAA9" transform="matrix(1.00, 0.00, -0.00, -1.00, 415.6, 331.0)">H</text><text xml:space="preserve" font-family="DINAlternate-Bold" font-weight="bold" font-size="77.0" fill="#A6AAA9" transform="matrix(1.00, 0.00, -0.00, -1.00, 465.5, 331.0)">E</text><text xml:space="preserve" font-family="DINAlternate-Bold" font-weight="bold" font-size="77.0" fill="#A6AAA9" transform="matrix(1.00, 0.00, -0.00, -1.00, 508.4, 331.0)"> </text><text xml:space="preserve" font-family="DINAlternate-Bold" font-weight="bold" font-size="77.0" fill="#A6AAA9" transform="matrix(1.00, 0.00, -0.00, -1.00, 526.8, 331.0)">T</text><text xml:space="preserve" font-family="DINAlternate-Bold" font-weight="bold" font-size="77.0" fill="#A6AAA9" transform="matrix(1.00, 0.00, -0.00, -1.00, 565.3, 331.0)">I</text><text xml:space="preserve" font-family="DINAlternate-Bold" font-weight="bold" font-size="77.0" fill="#A6AAA9" transform="matrix(1.00, 0.00, -0.00, -1.00, 585.1, 331.0)">M</text><text xml:space="preserve" font-family="DINAlternate-Bold" font-weight="bold" font-size="77.0" fill="#A6AAA9" transform="matrix(1.00, 0.00, -0.00, -1.00, 643.5, 331.0)">E</text><text xml:space="preserve" font-family="DINAlternate-Bold" font-weight="bold" font-size="77.0" fill="#A6AAA9" transform="matrix(1.00, 0.00, -0.00, -1.00, 686.3, 331.0)">S</text></g></svg>