<?xml version="1.0" encoding="UTF-8" standalone="no"?><svg xmlns="http://www.w3.org/2000/svg" xmlns:xlink="http://www.w3.org/1999/xlink" clip-rule="evenodd" stroke-miterlimit="4.00" viewBox="0 0 1920 1080"><desc>SVG generated by Keynote</desc><defs></defs><g transform="matrix(1.00, 0.00, -0.00, -1.00, 0.0, 1080.0)"><path d="M 0.0 1080.0 L 1920.0 1080.0 L 1920.0 0.0 L 0.0 0.0 Z M 0.0 1080.0 " fill="#212121"></path><text xml:space="preserve" font-family="DINCondensed-Bold" font-weight="bold" font-size="290.6" fill="#34A4DA" transform="matrix(1.00, 0.00, -0.00, -1.00, 74.0, 521.0)">W</text><text xml:space="preserve" font-family="DINCondensed-Bold" font-weight="bold" font-size="290.6" fill="#34A4DA" transform="matrix(1.00, 0.00, -0.00, -1.00, 246.3, 521.0)">H</text><text xml:space="preserve" font-family="DINCondensed-Bold" font-weight="bold" font-size="290.6" fill="#34A4DA" transform="matrix(1.00, 0.00, -0.00, -1.00, 370.1, 521.0)">E</text><text xml:space="preserve" font-family="DINCondensed-Bold" font-weight="bold" font-size="290.6" fill="#34A4DA" transform="matrix(1.00, 0.00, -0.00, -1.00, 477.6, 521.0)">N</text><text xml:space="preserve" font-family="DINCondensed-Bold" font-weight="bold" font-size="290.6" fill="#34A4DA" transform="matrix(1.00, 0.00, -0.00, -1.00, 606.6, 521.0)"> </text><text xml:space="preserve" font-family="DINCondensed-Bold" font-weight="bold" font-size="290.6" fill="#34A4DA" transform="matrix(1.00, 0.00, -0.00, -1.00, 660.7, 521.0)">T</text><text xml:space="preserve" font-family="DINCondensed-Bold" font-weight="bold" font-size="290.6" fill="#34A4DA" transform="matrix(1.00, 0.00, -0.00, -1.00, 753.7, 521.0)">O</text><text xml:space="preserve" font-family="DINCondensed-Bold" font-weight="bold" font-size="290.6" fill="#34A4DA" transform="matrix(1.00, 0.00, -0.00, -1.00, 877.5, 521.0)"> </text><text xml:space="preserve" font-family="DINCondensed-Bold" font-weight="bold" font-size="290.6" fill="#34A4DA" transform="matrix(1.00, 0.00, -0.00, -1.00, 931.5, 521.0)">B</text><text xml:space="preserve" font-family="DINCondensed-Bold" font-weight="bold" font-size="290.6" fill="#34A4DA" transform="matrix(1.00, 0.00, -0.00, -1.00, 1055.3, 521.0)">R</text><text xml:space="preserve" font-family="DINCondensed-Bold" font-weight="bold" font-size="290.6" fill="#34A4DA" transform="matrix(1.00, 0.00, -0.00, -1.00, 1179.1, 521.0)">E</text><text xml:space="preserve" font-family="DINCondensed-Bold" font-weight="bold" font-size="290.6" fill="#34A4DA" transform="matrix(1.00, 0.00, -0.00, -1.00, 1286.6, 521.0)">A</text><text xml:space="preserve" font-family="DINCondensed-Bold" font-weight="bold" font-size="290.6" fill="#34A4DA" transform="matrix(1.00, 0.00, -0.00, -1.00, 1404.9, 521.0)">K</text><text xml:space="preserve" font-family="DINCondensed-Bold" font-weight="bold" font-size="290.6" fill="#34A4DA" transform="matrix(1.00, 0.00, -0.00, -1.00, 1528.6, 521.0)"> </text><text xml:space="preserve" font-family="DINCondensed-Bold" font-weight="bold" font-size="290.6" fill="#34A4DA" transform="matrix(1.00, 0.00, -0.00, -1.00, 1582.7, 521.0)">I</text><text xml:space="preserve" font-family="DINCondensed-Bold" font-weight="bold" font-size="290.6" fill="#34A4DA" transform="matrix(1.00, 0.00, -0.00, -1.00, 1642.0, 521.0)">T</text><text xml:space="preserve" font-family="DINCondensed-Bold" font-weight="bold" font-size="290.6" fill="#34A4DA" transform="matrix(1.00, 0.00, -0.00, -1.00, 1738.4, 521.0)">?</text></g></svg>