<?xml version="1.0" encoding="UTF-8" standalone="no"?><svg xmlns="http://www.w3.org/2000/svg" xmlns:xlink="http://www.w3.org/1999/xlink" clip-rule="evenodd" stroke-miterlimit="4.00" viewBox="0 0 1920 1080"><desc>SVG generated by Keynote</desc><defs></defs><g transform="matrix(1.00, 0.00, -0.00, -1.00, 0.0, 1080.0)"><path d="M 0.0 1080.0 L 1920.0 1080.0 L 1920.0 0.0 L 0.0 0.0 Z M 0.0 1080.0 " fill="#212121"></path><text xml:space="preserve" font-family="DINCondensed-Bold" font-weight="bold" font-size="250.5" fill="#00CBD9" transform="matrix(1.00, 0.00, -0.00, -1.00, 79.0, 551.0)">W</text><text xml:space="preserve" font-family="DINCondensed-Bold" font-weight="bold" font-size="250.5" fill="#00CBD9" transform="matrix(1.00, 0.00, -0.00, -1.00, 227.5, 551.0)">H</text><text xml:space="preserve" font-family="DINCondensed-Bold" font-weight="bold" font-size="250.5" fill="#00CBD9" transform="matrix(1.00, 0.00, -0.00, -1.00, 334.3, 551.0)">E</text><text xml:space="preserve" font-family="DINCondensed-Bold" font-weight="bold" font-size="250.5" fill="#00CBD9" transform="matrix(1.00, 0.00, -0.00, -1.00, 426.9, 551.0)">N</text><text xml:space="preserve" font-family="DINCondensed-Bold" font-weight="bold" font-size="250.5" fill="#00CBD9" transform="matrix(1.00, 0.00, -0.00, -1.00, 538.2, 551.0)"> </text><text xml:space="preserve" font-family="DINCondensed-Bold" font-weight="bold" font-size="250.5" fill="#00CBD9" transform="matrix(1.00, 0.00, -0.00, -1.00, 584.8, 551.0)">Y</text><text xml:space="preserve" font-family="DINCondensed-Bold" font-weight="bold" font-size="250.5" fill="#00CBD9" transform="matrix(1.00, 0.00, -0.00, -1.00, 682.0, 551.0)">O</text><text xml:space="preserve" font-family="DINCondensed-Bold" font-weight="bold" font-size="250.5" fill="#00CBD9" transform="matrix(1.00, 0.00, -0.00, -1.00, 788.7, 551.0)">U</text><text xml:space="preserve" font-family="DINCondensed-Bold" font-weight="bold" font-size="250.5" fill="#00CBD9" transform="matrix(1.00, 0.00, -0.00, -1.00, 895.4, 551.0)"> </text><text xml:space="preserve" font-family="DINCondensed-Bold" font-weight="bold" font-size="250.5" fill="#00CBD9" transform="matrix(1.00, 0.00, -0.00, -1.00, 942.0, 551.0)">D</text><text xml:space="preserve" font-family="DINCondensed-Bold" font-weight="bold" font-size="250.5" fill="#00CBD9" transform="matrix(1.00, 0.00, -0.00, -1.00, 1048.7, 551.0)">O</text><text xml:space="preserve" font-family="DINCondensed-Bold" font-weight="bold" font-size="250.5" fill="#00CBD9" transform="matrix(1.00, 0.00, -0.00, -1.00, 1155.4, 551.0)">,</text><text xml:space="preserve" font-family="DINCondensed-Bold" font-weight="bold" font-size="250.5" fill="#00CBD9" transform="matrix(1.00, 0.00, -0.00, -1.00, 1202.0, 551.0)"> </text><text xml:space="preserve" font-family="DINCondensed-Bold" font-weight="bold" font-size="250.5" fill="#00CBD9" transform="matrix(1.00, 0.00, -0.00, -1.00, 1248.6, 551.0)">T</text><text xml:space="preserve" font-family="DINCondensed-Bold" font-weight="bold" font-size="250.5" fill="#00CBD9" transform="matrix(1.00, 0.00, -0.00, -1.00, 1331.8, 551.0)">H</text><text xml:space="preserve" font-family="DINCondensed-Bold" font-weight="bold" font-size="250.5" fill="#00CBD9" transform="matrix(1.00, 0.00, -0.00, -1.00, 1438.5, 551.0)">A</text><text xml:space="preserve" font-family="DINCondensed-Bold" font-weight="bold" font-size="250.5" fill="#00CBD9" transform="matrix(1.00, 0.00, -0.00, -1.00, 1526.6, 551.0)">T</text><text xml:space="preserve" font-family="DINCondensed-Bold" font-weight="bold" font-size="250.5" fill="#00CBD9" transform="matrix(1.00, 0.00, -0.00, -1.00, 1609.8, 551.0)">’</text><text xml:space="preserve" font-family="DINCondensed-Bold" font-weight="bold" font-size="250.5" fill="#00CBD9" transform="matrix(1.00, 0.00, -0.00, -1.00, 1656.4, 551.0)">L</text><text xml:space="preserve" font-family="DINCondensed-Bold" font-weight="bold" font-size="250.5" fill="#00CBD9" transform="matrix(1.00, 0.00, -0.00, -1.00, 1749.1, 551.0)">L</text><text xml:space="preserve" font-family="DINCondensed-Bold" font-weight="bold" font-size="250.5" fill="#00CBD9" transform="matrix(1.00, 0.00, -0.00, -1.00, 1841.8, 551.0)"> </text><text xml:space="preserve" font-family="DINCondensed-Bold" font-weight="bold" font-size="250.5" fill="#00CBD9" transform="matrix(1.00, 0.00, -0.00, -1.00, 373.0, 301.0)">B</text><text xml:space="preserve" font-family="DINCondensed-Bold" font-weight="bold" font-size="250.5" fill="#00CBD9" transform="matrix(1.00, 0.00, -0.00, -1.00, 479.7, 301.0)">E</text><text xml:space="preserve" font-family="DINCondensed-Bold" font-weight="bold" font-size="250.5" fill="#00CBD9" transform="matrix(1.00, 0.00, -0.00, -1.00, 572.4, 301.0)"> </text><text xml:space="preserve" font-family="DINCondensed-Bold" font-weight="bold" font-size="250.5" fill="#00CBD9" transform="matrix(1.00, 0.00, -0.00, -1.00, 619.0, 301.0)">G</text><text xml:space="preserve" font-family="DINCondensed-Bold" font-weight="bold" font-size="250.5" fill="#00CBD9" transform="matrix(1.00, 0.00, -0.00, -1.00, 725.7, 301.0)">O</text><text xml:space="preserve" font-family="DINCondensed-Bold" font-weight="bold" font-size="250.5" fill="#00CBD9" transform="matrix(1.00, 0.00, -0.00, -1.00, 832.4, 301.0)">O</text><text xml:space="preserve" font-family="DINCondensed-Bold" font-weight="bold" font-size="250.5" fill="#00CBD9" transform="matrix(1.00, 0.00, -0.00, -1.00, 939.1, 301.0)">D</text><text xml:space="preserve" font-family="DINCondensed-Bold" font-weight="bold" font-size="250.5" fill="#00CBD9" transform="matrix(1.00, 0.00, -0.00, -1.00, 1045.8, 301.0)"> </text><text xml:space="preserve" font-family="DINCondensed-Bold" font-weight="bold" font-size="250.5" fill="#00CBD9" transform="matrix(1.00, 0.00, -0.00, -1.00, 1092.4, 301.0)">N</text><text xml:space="preserve" font-family="DINCondensed-Bold" font-weight="bold" font-size="250.5" fill="#00CBD9" transform="matrix(1.00, 0.00, -0.00, -1.00, 1203.7, 301.0)">E</text><text xml:space="preserve" font-family="DINCondensed-Bold" font-weight="bold" font-size="250.5" fill="#00CBD9" transform="matrix(1.00, 0.00, -0.00, -1.00, 1296.3, 301.0)">W</text><text xml:space="preserve" font-family="DINCondensed-Bold" font-weight="bold" font-size="250.5" fill="#00CBD9" transform="matrix(1.00, 0.00, -0.00, -1.00, 1444.9, 301.0)">S</text></g></svg>