<?xml version="1.0" encoding="UTF-8" standalone="no"?><svg xmlns="http://www.w3.org/2000/svg" xmlns:xlink="http://www.w3.org/1999/xlink" clip-rule="evenodd" stroke-miterlimit="4.00" viewBox="0 0 1920 1080"><desc>SVG generated by Keynote</desc><defs></defs><g transform="matrix(1.00, 0.00, -0.00, -1.00, 0.0, 1080.0)"><path d="M 0.0 1080.0 L 1920.0 1080.0 L 1920.0 0.0 L 0.0 0.0 Z M 0.0 1080.0 " fill="#212121"></path><text xml:space="preserve" font-family="DINCondensed-Bold" font-weight="bold" font-size="290.6" fill="#34A4DA" transform="matrix(1.00, 0.00, -0.00, -1.00, 350.0, 521.0)">A</text><text xml:space="preserve" font-family="DINCondensed-Bold" font-weight="bold" font-size="290.6" fill="#34A4DA" transform="matrix(1.00, 0.00, -0.00, -1.00, 468.3, 521.0)">L</text><text xml:space="preserve" font-family="DINCondensed-Bold" font-weight="bold" font-size="290.6" fill="#34A4DA" transform="matrix(1.00, 0.00, -0.00, -1.00, 575.8, 521.0)">L</text><text xml:space="preserve" font-family="DINCondensed-Bold" font-weight="bold" font-size="290.6" fill="#34A4DA" transform="matrix(1.00, 0.00, -0.00, -1.00, 683.3, 521.0)">O</text><text xml:space="preserve" font-family="DINCondensed-Bold" font-weight="bold" font-size="290.6" fill="#34A4DA" transform="matrix(1.00, 0.00, -0.00, -1.00, 803.6, 521.0)">W</text><text xml:space="preserve" font-family="DINCondensed-Bold" font-weight="bold" font-size="290.6" fill="#34A4DA" transform="matrix(1.00, 0.00, -0.00, -1.00, 975.9, 521.0)"> </text><text xml:space="preserve" font-family="DINCondensed-Bold" font-weight="bold" font-size="290.6" fill="#34A4DA" transform="matrix(1.00, 0.00, -0.00, -1.00, 1030.0, 521.0)">M</text><text xml:space="preserve" font-family="DINCondensed-Bold" font-weight="bold" font-size="290.6" fill="#34A4DA" transform="matrix(1.00, 0.00, -0.00, -1.00, 1191.5, 521.0)">E</text><text xml:space="preserve" font-family="DINCondensed-Bold" font-weight="bold" font-size="290.6" fill="#34A4DA" transform="matrix(1.00, 0.00, -0.00, -1.00, 1299.0, 521.0)"> </text><text xml:space="preserve" font-family="DINCondensed-Bold" font-weight="bold" font-size="290.6" fill="#34A4DA" transform="matrix(1.00, 0.00, -0.00, -1.00, 1353.1, 521.0)">T</text><text xml:space="preserve" font-family="DINCondensed-Bold" font-weight="bold" font-size="290.6" fill="#34A4DA" transform="matrix(1.00, 0.00, -0.00, -1.00, 1446.1, 521.0)">O</text><text xml:space="preserve" font-family="DINCondensed-Bold" font-weight="bold" font-size="290.6" fill="#34A4DA" transform="matrix(1.00, 0.00, -0.00, -1.00, 1569.9, 521.0)"> </text><text xml:space="preserve" font-family="DINCondensed-Bold" font-weight="bold" font-size="290.6" fill="#34A4DA" transform="matrix(1.00, 0.00, -0.00, -1.00, 632.0, 230.0)">R</text><text xml:space="preserve" font-family="DINCondensed-Bold" font-weight="bold" font-size="290.6" fill="#34A4DA" transform="matrix(1.00, 0.00, -0.00, -1.00, 755.8, 230.0)">E</text><text xml:space="preserve" font-family="DINCondensed-Bold" font-weight="bold" font-size="290.6" fill="#34A4DA" transform="matrix(1.00, 0.00, -0.00, -1.00, 863.3, 230.0)">P</text><text xml:space="preserve" font-family="DINCondensed-Bold" font-weight="bold" font-size="290.6" fill="#34A4DA" transform="matrix(1.00, 0.00, -0.00, -1.00, 981.6, 230.0)">E</text><text xml:space="preserve" font-family="DINCondensed-Bold" font-weight="bold" font-size="290.6" fill="#34A4DA" transform="matrix(1.00, 0.00, -0.00, -1.00, 1089.1, 230.0)">A</text><text xml:space="preserve" font-family="DINCondensed-Bold" font-weight="bold" font-size="290.6" fill="#34A4DA" transform="matrix(1.00, 0.00, -0.00, -1.00, 1191.4, 230.0)">T</text></g></svg>