<?xml version="1.0" encoding="UTF-8" standalone="no"?><svg xmlns="http://www.w3.org/2000/svg" xmlns:xlink="http://www.w3.org/1999/xlink" clip-rule="evenodd" stroke-miterlimit="4.00" viewBox="0 0 1920 1080"><desc>SVG generated by Keynote</desc><defs></defs><g transform="matrix(1.00, 0.00, -0.00, -1.00, 0.0, 1080.0)"><path d="M 0.0 1080.0 L 1920.0 1080.0 L 1920.0 0.0 L 0.0 0.0 Z M 0.0 1080.0 " fill="#212121"></path><text xml:space="preserve" font-family="DINCondensed-Bold" font-weight="bold" font-size="290.6" fill="#34A4DA" transform="matrix(1.00, 0.00, -0.00, -1.00, 281.0, 521.0)">M</text><text xml:space="preserve" font-family="DINCondensed-Bold" font-weight="bold" font-size="290.6" fill="#34A4DA" transform="matrix(1.00, 0.00, -0.00, -1.00, 442.6, 521.0)">O</text><text xml:space="preserve" font-family="DINCondensed-Bold" font-weight="bold" font-size="290.6" fill="#34A4DA" transform="matrix(1.00, 0.00, -0.00, -1.00, 566.3, 521.0)">N</text><text xml:space="preserve" font-family="DINCondensed-Bold" font-weight="bold" font-size="290.6" fill="#34A4DA" transform="matrix(1.00, 0.00, -0.00, -1.00, 695.4, 521.0)">I</text><text xml:space="preserve" font-family="DINCondensed-Bold" font-weight="bold" font-size="290.6" fill="#34A4DA" transform="matrix(1.00, 0.00, -0.00, -1.00, 754.6, 521.0)">T</text><text xml:space="preserve" font-family="DINCondensed-Bold" font-weight="bold" font-size="290.6" fill="#34A4DA" transform="matrix(1.00, 0.00, -0.00, -1.00, 847.6, 521.0)">O</text><text xml:space="preserve" font-family="DINCondensed-Bold" font-weight="bold" font-size="290.6" fill="#34A4DA" transform="matrix(1.00, 0.00, -0.00, -1.00, 971.4, 521.0)">R</text><text xml:space="preserve" font-family="DINCondensed-Bold" font-weight="bold" font-size="290.6" fill="#34A4DA" transform="matrix(1.00, 0.00, -0.00, -1.00, 1095.2, 521.0)">I</text><text xml:space="preserve" font-family="DINCondensed-Bold" font-weight="bold" font-size="290.6" fill="#34A4DA" transform="matrix(1.00, 0.00, -0.00, -1.00, 1154.5, 521.0)">N</text><text xml:space="preserve" font-family="DINCondensed-Bold" font-weight="bold" font-size="290.6" fill="#34A4DA" transform="matrix(1.00, 0.00, -0.00, -1.00, 1283.5, 521.0)">G</text><text xml:space="preserve" font-family="DINCondensed-Bold" font-weight="bold" font-size="290.6" fill="#34A4DA" transform="matrix(1.00, 0.00, -0.00, -1.00, 1407.3, 521.0)"> </text><text xml:space="preserve" font-family="DINCondensed-Bold" font-weight="bold" font-size="290.6" fill="#34A4DA" transform="matrix(1.00, 0.00, -0.00, -1.00, 1461.3, 521.0)">I</text><text xml:space="preserve" font-family="DINCondensed-Bold" font-weight="bold" font-size="290.6" fill="#34A4DA" transform="matrix(1.00, 0.00, -0.00, -1.00, 1520.6, 521.0)">S</text><text xml:space="preserve" font-family="DINCondensed-Bold" font-weight="bold" font-size="290.6" fill="#34A4DA" transform="matrix(1.00, 0.00, -0.00, -1.00, 1638.6, 521.0)"> </text><text xml:space="preserve" font-family="DINCondensed-Bold" font-weight="bold" font-size="290.6" fill="#34A4DA" transform="matrix(1.00, 0.00, -0.00, -1.00, 732.0, 230.0)">E</text><text xml:space="preserve" font-family="DINCondensed-Bold" font-weight="bold" font-size="290.6" fill="#34A4DA" transform="matrix(1.00, 0.00, -0.00, -1.00, 839.5, 230.0)">A</text><text xml:space="preserve" font-family="DINCondensed-Bold" font-weight="bold" font-size="290.6" fill="#34A4DA" transform="matrix(1.00, 0.00, -0.00, -1.00, 957.8, 230.0)">S</text><text xml:space="preserve" font-family="DINCondensed-Bold" font-weight="bold" font-size="290.6" fill="#34A4DA" transform="matrix(1.00, 0.00, -0.00, -1.00, 1075.8, 230.0)">Y</text></g></svg>