<?xml version="1.0" encoding="UTF-8" standalone="no"?><svg xmlns="http://www.w3.org/2000/svg" xmlns:xlink="http://www.w3.org/1999/xlink" clip-rule="evenodd" stroke-miterlimit="4.00" viewBox="0 0 1920 1080"><desc>SVG generated by Keynote</desc><defs></defs><g transform="matrix(1.00, 0.00, -0.00, -1.00, 0.0, 1080.0)"><path d="M 0.0 1080.0 L 1920.0 1080.0 L 1920.0 0.0 L 0.0 0.0 Z M 0.0 1080.0 " fill="#212121"></path><text xml:space="preserve" font-family="DINCondensed-Bold" font-weight="bold" font-size="325.7" fill="#34A4DA" transform="matrix(1.00, 0.00, -0.00, -1.00, 76.0, 496.0)">E</text><text xml:space="preserve" font-family="DINCondensed-Bold" font-weight="bold" font-size="325.7" fill="#34A4DA" transform="matrix(1.00, 0.00, -0.00, -1.00, 196.5, 496.0)">A</text><text xml:space="preserve" font-family="DINCondensed-Bold" font-weight="bold" font-size="325.7" fill="#34A4DA" transform="matrix(1.00, 0.00, -0.00, -1.00, 329.0, 496.0)">S</text><text xml:space="preserve" font-family="DINCondensed-Bold" font-weight="bold" font-size="325.7" fill="#34A4DA" transform="matrix(1.00, 0.00, -0.00, -1.00, 461.2, 496.0)">Y</text><text xml:space="preserve" font-family="DINCondensed-Bold" font-weight="bold" font-size="325.7" fill="#34A4DA" transform="matrix(1.00, 0.00, -0.00, -1.00, 587.6, 496.0)"> </text><text xml:space="preserve" font-family="DINCondensed-Bold" font-weight="bold" font-size="325.7" fill="#34A4DA" transform="matrix(1.00, 0.00, -0.00, -1.00, 648.2, 496.0)">T</text><text xml:space="preserve" font-family="DINCondensed-Bold" font-weight="bold" font-size="325.7" fill="#34A4DA" transform="matrix(1.00, 0.00, -0.00, -1.00, 752.4, 496.0)">O</text><text xml:space="preserve" font-family="DINCondensed-Bold" font-weight="bold" font-size="325.7" fill="#34A4DA" transform="matrix(1.00, 0.00, -0.00, -1.00, 891.1, 496.0)"> </text><text xml:space="preserve" font-family="DINCondensed-Bold" font-weight="bold" font-size="325.7" fill="#34A4DA" transform="matrix(1.00, 0.00, -0.00, -1.00, 951.7, 496.0)">R</text><text xml:space="preserve" font-family="DINCondensed-Bold" font-weight="bold" font-size="325.7" fill="#34A4DA" transform="matrix(1.00, 0.00, -0.00, -1.00, 1090.4, 496.0)">E</text><text xml:space="preserve" font-family="DINCondensed-Bold" font-weight="bold" font-size="325.7" fill="#34A4DA" transform="matrix(1.00, 0.00, -0.00, -1.00, 1210.9, 496.0)">C</text><text xml:space="preserve" font-family="DINCondensed-Bold" font-weight="bold" font-size="325.7" fill="#34A4DA" transform="matrix(1.00, 0.00, -0.00, -1.00, 1343.4, 496.0)">Y</text><text xml:space="preserve" font-family="DINCondensed-Bold" font-weight="bold" font-size="325.7" fill="#34A4DA" transform="matrix(1.00, 0.00, -0.00, -1.00, 1469.8, 496.0)">C</text><text xml:space="preserve" font-family="DINCondensed-Bold" font-weight="bold" font-size="325.7" fill="#34A4DA" transform="matrix(1.00, 0.00, -0.00, -1.00, 1602.3, 496.0)">L</text><text xml:space="preserve" font-family="DINCondensed-Bold" font-weight="bold" font-size="325.7" fill="#34A4DA" transform="matrix(1.00, 0.00, -0.00, -1.00, 1722.8, 496.0)">E</text></g></svg>